<svg width="86" height="86" viewBox="0 0 86 86" fill="none" xmlns="http://www.w3.org/2000/svg">
<rect width="86" height="86" rx="10" fill="#F5F0E8"/>
<path d="M53.2918 24.7134V21.3334C53.2918 20.445 52.5551 19.7084 51.6668 19.7084C50.7784 19.7084 50.0418 20.445 50.0418 21.3334V24.5834H35.9584V21.3334C35.9584 20.445 35.2218 19.7084 34.3334 19.7084C33.4451 19.7084 32.7084 20.445 32.7084 21.3334V24.7134C26.8584 25.255 24.0201 28.7434 23.5868 33.9217C23.5434 34.55 24.0634 35.07 24.6701 35.07H61.3301C61.9584 35.07 62.4784 34.5284 62.4134 33.9217C61.9801 28.7434 59.1418 25.255 53.2918 24.7134Z" fill="#FFC700"/>
<path d="M60.3333 38.3199H25.6667C24.475 38.3199 23.5 39.2949 23.5 40.4866V53.8333C23.5 60.3333 26.75 64.6666 34.3333 64.6666H51.6667C59.25 64.6666 62.5 60.3333 62.5 53.8333V40.4866C62.5 39.2949 61.525 38.3199 60.3333 38.3199ZM36.955 56.4549C36.7383 56.6499 36.5 56.8016 36.24 56.9099C35.98 57.0183 35.6983 57.0833 35.4167 57.0833C35.135 57.0833 34.8533 57.0183 34.5933 56.9099C34.3333 56.8016 34.095 56.6499 33.8783 56.4549C33.4883 56.0433 33.25 55.4799 33.25 54.9166C33.25 54.3533 33.4883 53.7899 33.8783 53.3783C34.095 53.1833 34.3333 53.0316 34.5933 52.9233C35.1133 52.7066 35.72 52.7066 36.24 52.9233C36.5 53.0316 36.7383 53.1833 36.955 53.3783C37.345 53.7899 37.5833 54.3533 37.5833 54.9166C37.5833 55.4799 37.345 56.0433 36.955 56.4549ZM37.41 48.1566C37.3017 48.4166 37.15 48.6549 36.955 48.8716C36.7383 49.0666 36.5 49.2183 36.24 49.3266C35.98 49.4349 35.6983 49.4999 35.4167 49.4999C35.135 49.4999 34.8533 49.4349 34.5933 49.3266C34.3333 49.2183 34.095 49.0666 33.8783 48.8716C33.6833 48.6549 33.5317 48.4166 33.4233 48.1566C33.315 47.8966 33.25 47.6149 33.25 47.3333C33.25 47.0516 33.315 46.7699 33.4233 46.5099C33.5317 46.2499 33.6833 46.0116 33.8783 45.7949C34.095 45.5999 34.3333 45.4483 34.5933 45.3399C35.1133 45.1233 35.72 45.1233 36.24 45.3399C36.5 45.4483 36.7383 45.5999 36.955 45.7949C37.15 46.0116 37.3017 46.2499 37.41 46.5099C37.5183 46.7699 37.5833 47.0516 37.5833 47.3333C37.5833 47.6149 37.5183 47.8966 37.41 48.1566ZM44.5383 48.8716C44.3217 49.0666 44.0833 49.2183 43.8233 49.3266C43.5633 49.4349 43.2817 49.4999 43 49.4999C42.7183 49.4999 42.4367 49.4349 42.1767 49.3266C41.9167 49.2183 41.6783 49.0666 41.4617 48.8716C41.0717 48.4599 40.8333 47.8966 40.8333 47.3333C40.8333 46.7699 41.0717 46.2066 41.4617 45.7949C41.6783 45.5999 41.9167 45.4483 42.1767 45.3399C42.6967 45.1016 43.3033 45.1016 43.8233 45.3399C44.0833 45.4483 44.3217 45.5999 44.5383 45.7949C44.9283 46.2066 45.1667 46.7699 45.1667 47.3333C45.1667 47.8966 44.9283 48.4599 44.5383 48.8716Z" fill="#FFC700"/>
</svg>
