<svg width="86" height="86" viewBox="0 0 86 86" fill="none" xmlns="http://www.w3.org/2000/svg">
<rect width="86" height="86" rx="10" fill="#E8EEF5"/>
<path d="M55.5883 28.895V30.4984L47.9183 26.0567C45.015 24.3884 40.9633 24.3884 38.0816 26.0567L30.4116 30.52V28.895C30.4116 24.02 33.0766 21.3334 37.9516 21.3334H48.0483C52.9233 21.3334 55.5883 24.02 55.5883 28.895Z" fill="#005EEE"/>
<path d="M55.6533 34.2684L55.3499 34.1167L52.4033 32.4267L46.2933 28.895C44.4299 27.8117 41.5699 27.8117 39.7066 28.895L33.5966 32.405L30.6499 34.1384L30.2599 34.3334C26.4683 36.89 26.2083 37.3667 26.2083 41.4617V51.255C26.2083 55.35 26.4683 55.8267 30.3466 58.4484L39.7066 63.8434C40.6383 64.4067 41.8083 64.645 42.9999 64.645C44.1699 64.645 45.3616 64.385 46.2933 63.8434L55.7399 58.3834C59.5533 55.8267 59.7916 55.3717 59.7916 51.255V41.4617C59.7916 37.3667 59.5316 36.89 55.6533 34.2684ZM49.0449 46.25L47.7233 47.875C47.5066 48.1134 47.3549 48.5684 47.3766 48.8934L47.5066 50.9734C47.5933 52.2517 46.6833 52.9017 45.4916 52.4467L43.5633 51.6667C43.2599 51.5584 42.7616 51.5584 42.4583 51.6667L40.5299 52.425C39.3383 52.9017 38.4283 52.23 38.5149 50.9517L38.6449 48.8717C38.6666 48.5467 38.5149 48.0917 38.2983 47.8534L36.9549 46.25C36.1316 45.275 36.4999 44.1917 37.7349 43.8667L39.7499 43.3467C40.0749 43.26 40.4433 42.9567 40.6166 42.6967L41.7433 40.9634C42.4366 39.88 43.5416 39.88 44.2566 40.9634L45.3833 42.6967C45.5566 42.9784 45.9466 43.26 46.2499 43.3467L48.2649 43.8667C49.4999 44.1917 49.8683 45.275 49.0449 46.25Z" fill="#005EEE"/>
</svg>
