<svg width="86" height="86" viewBox="0 0 86 86" fill="none" xmlns="http://www.w3.org/2000/svg">
<path d="M63.6958 56.5575C62.5961 57.8009 61.4421 59.0287 60.2354 60.2354C42.7842 77.6867 20.9206 84.1171 11.4017 74.5983C4.87584 68.0724 5.84635 55.7443 12.7251 43.0136M22.1548 29.6118C23.2993 28.3105 24.5031 27.026 25.7646 25.7646C43.2158 8.31335 65.0794 1.88288 74.5983 11.4017C81.1287 17.9321 80.1523 30.2727 73.2606 43.0127M60.2354 25.7646C77.6867 43.2158 84.1171 65.0794 74.5983 74.5983C65.0794 84.1171 43.2158 77.6867 25.7646 60.2354C8.31334 42.7842 1.88288 20.9206 11.4017 11.4017C20.9206 1.88288 42.7842 8.31334 60.2354 25.7646ZM46.9779 42.9152C46.9779 45.1588 45.1591 46.9776 42.9154 46.9776C40.6718 46.9776 38.853 45.1588 38.853 42.9152C38.853 40.6715 40.6718 38.8527 42.9154 38.8527C45.1591 38.8527 46.9779 40.6715 46.9779 42.9152Z" stroke="#005EEE" stroke-width="6" stroke-linecap="round" stroke-linejoin="round"/>
</svg>
