<svg width="86" height="86" viewBox="0 0 86 86" fill="none" xmlns="http://www.w3.org/2000/svg">
<path d="M35.8 7.00031V23.7778C35.8 24.5596 35.8 24.9505 35.6808 25.2615C35.5685 25.5549 35.4197 25.7678 35.1829 25.9743C34.9319 26.1931 34.5253 26.342 33.7123 26.6399C23.3761 30.4264 16 40.3518 16 52C16 66.9117 28.0883 79 43 79C57.9117 79 70 66.9117 70 52C70 40.3518 62.6239 30.4264 52.2877 26.6399C51.4747 26.342 51.0681 26.1931 50.8171 25.9743C50.5803 25.7678 50.4315 25.5549 50.3191 25.2615C50.2 24.9505 50.2 24.5596 50.2 23.7778V7.00031M30.4 7H55.6" stroke="#005EEE" stroke-width="6" stroke-linecap="round" stroke-linejoin="round"/>
<circle cx="37" cy="41" r="4" stroke="#005EEE" stroke-width="6"/>
<circle cx="48.5" cy="58.5" r="7.5" stroke="#005EEE" stroke-width="6"/>
</svg>
