<svg width="86" height="86" viewBox="0 0 86 86" fill="none" xmlns="http://www.w3.org/2000/svg">
<path d="M76 24.5V61.5C76 72.6 70.5 80 57.6667 80H28.3333C15.5 80 10 72.6 10 61.5V24.5C10 13.4 15.5 6 28.3333 6H57.6667C70.5 6 76 13.4 76 24.5Z" stroke="#005EEE" stroke-width="6" stroke-miterlimit="10" stroke-linecap="round" stroke-linejoin="round"/>
<path d="M58.5833 39H27.4167C23.8967 39 21 36.235 21 32.875V24.125C21 20.765 23.8967 18 27.4167 18H58.5833C62.1033 18 65 20.765 65 24.125V32.875C65 36.235 62.1033 39 58.5833 39Z" stroke="#005EEE" stroke-width="6" stroke-miterlimit="10" stroke-linecap="round" stroke-linejoin="round"/>
<path d="M36 55L28 63" stroke="#005EEE" stroke-width="6" stroke-miterlimit="10" stroke-linecap="round" stroke-linejoin="round"/>
<path d="M28 55L36 63" stroke="#005EEE" stroke-width="6" stroke-miterlimit="10" stroke-linecap="round" stroke-linejoin="round"/>
<path d="M59.0891 54.9326H59.1609" stroke="#005EEE" stroke-width="6" stroke-miterlimit="10" stroke-linecap="round" stroke-linejoin="round"/>
<path d="M51.9224 62.7083V62.6366" stroke="#005EEE" stroke-width="6" stroke-miterlimit="10" stroke-linecap="round" stroke-linejoin="round"/>
</svg>
