<svg width="86" height="86" viewBox="0 0 86 86" fill="none" xmlns="http://www.w3.org/2000/svg">
<rect width="86" height="86" rx="10" fill="#E8F5EC"/>
<path d="M53.4651 50.8866C54.9168 49.9333 56.8234 50.9733 56.8234 52.7066V55.5016C56.8234 58.2533 54.6784 61.2 52.1001 62.0666L45.1884 64.3633C43.9751 64.775 42.0034 64.775 40.8118 64.3633L33.9001 62.0666C31.3001 61.2 29.1768 58.2533 29.1768 55.5016V52.685C29.1768 50.9733 31.0834 49.9333 32.5134 50.865L36.9768 53.7683C38.6884 54.9166 40.8551 55.48 43.0218 55.48C45.1884 55.48 47.3551 54.9166 49.0668 53.7683L53.4651 50.8866Z" fill="#338D4C"/>
<path d="M60.29 30.9966L47.3117 22.4816C44.9717 20.9433 41.115 20.9433 38.775 22.4816L25.7317 30.9966C21.55 33.705 21.55 39.8366 25.7317 42.5666L29.1984 44.82L38.775 51.06C41.115 52.5983 44.9717 52.5983 47.3117 51.06L56.8234 44.82L59.7917 42.87V49.5C59.7917 50.3883 60.5284 51.125 61.4167 51.125C62.305 51.125 63.0417 50.3883 63.0417 49.5V38.84C63.9084 36.045 63.02 32.795 60.29 30.9966Z" fill="#338D4C"/>
</svg>
