<svg width="38" height="38" viewBox="0 0 38 38" fill="none" xmlns="http://www.w3.org/2000/svg">
<path d="M12.2707 3.16669V12.35H3.1665C3.1665 6.63419 6.57067 3.19835 12.2707 3.16669Z" fill="#292D32"/>
<path d="M34.8332 12.35H25.729V3.16669C31.429 3.19835 34.8332 6.63419 34.8332 12.35Z" fill="#292D32"/>
<path d="M34.8332 25.8083C34.7698 31.4292 31.3815 34.8017 25.729 34.8333V25.8083H34.8332Z" fill="#292D32"/>
<path d="M12.2707 25.8083V34.8333C6.61817 34.8017 3.22984 31.4292 3.1665 25.8083H12.2707Z" fill="#292D32"/>
<path d="M12.2707 14.725H3.1665V23.4333H12.2707V14.725Z" fill="#292D32"/>
<path d="M34.8332 14.725H25.729V23.4333H34.8332V14.725Z" fill="#292D32"/>
<path d="M23.3543 14.725H14.646V23.4333H23.3543V14.725Z" fill="#292D32"/>
<path d="M23.3543 3.16669H14.646V12.35H23.3543V3.16669Z" fill="#292D32"/>
<path d="M23.3543 25.8083H14.646V34.8333H23.3543V25.8083Z" fill="#292D32"/>
</svg>
