<svg width="1920" height="1075" viewBox="0 0 1920 1075" fill="none" xmlns="http://www.w3.org/2000/svg">
<mask id="mask0_1_746" style="mask-type:luminance" maskUnits="userSpaceOnUse" x="0" y="0" width="1920" height="1077">
<path d="M1920 0H0V1077H1920V0Z" fill="white"/>
</mask>
<g mask="url(#mask0_1_746)">
<path d="M1976.98 0H-26.0137V821.017H1976.98V0Z" fill="url(#paint0_linear_1_746)"/>
<g opacity="0.29">
<path d="M142.829 263.607C221.573 262.523 182.189 229.026 131.551 229.026C80.9131 229.026 72.6556 241.31 72.6556 241.31C72.6556 241.31 73.4361 145.879 24.1093 137.021C-25.2176 128.163 -24.5854 221.597 -24.5854 221.597C-24.5854 221.597 -18.6224 101.597 -56.7025 99.0684C-94.7824 96.5398 -99.8166 210.905 -99.8166 210.905C-99.8166 210.905 -96.1795 145.879 -123.949 152.2C-151.719 158.522 -159.149 212.692 -159.149 212.692C-159.149 212.692 -175.742 110.455 -209.881 128.163C-244.02 145.871 -222.517 221.597 -222.517 221.597C-222.517 221.597 -241.015 179.149 -271.61 191.605C-302.205 204.06 -303.672 232.882 -303.672 232.882C-303.672 232.882 -318.4 199.932 -337.522 207.697C-348.574 212.185 -356.199 229.698 -360.663 243.675C-361.272 245.579 -430.01 245.611 -430.018 260.33C-430.018 267.884 -300.878 255.686 -163.528 254.671C-33.2722 253.712 104.507 264.138 142.829 263.607Z" fill="white"/>
<path d="M159.828 161.69C116.082 156.298 73.8887 191.901 131.567 194.82C189.245 197.739 226.56 169.916 159.828 161.69Z" fill="white"/>
<path d="M-400.952 273.933C-385.264 271.896 -184.687 260.244 -130.56 266.636C-76.4333 273.027 17.8965 270.015 17.5375 279.122C17.1785 288.23 -104.375 284.866 -137.218 278.342C-170.061 271.818 -251.645 286.248 -312.976 284.609C-374.306 282.97 -471.165 283.056 -400.952 273.933Z" fill="white"/>
<path d="M75.442 276.789C52.5035 276.789 18.2244 283.423 40.7103 289.065C63.1962 294.708 91.3796 290.072 100.597 286.818C109.815 283.563 90.7396 276.781 75.442 276.789Z" fill="white"/>
<path d="M135.024 279.887C125.19 277.546 113.678 287.458 124.628 288.901C135.578 290.345 151.298 283.766 135.024 279.887Z" fill="white"/>
</g>
<path d="M396.121 663.057C392.585 676.02 390.751 685.222 390.751 685.222C393.571 678.122 395.379 670.661 396.121 663.057Z" fill="url(#paint1_linear_1_746)"/>
<path d="M1946 760.175H939.239H-45.6506V1078.56H1946V760.175Z" fill="url(#paint2_linear_1_746)"/>
<path d="M141.128 843.393C141.128 843.393 130.256 817.552 138.076 815.89C145.897 814.228 152.07 837.235 152.07 837.235C152.07 837.235 151.836 822.773 158.478 823.242C165.12 823.71 168.203 840.083 168.203 840.083C168.203 840.083 169.389 827.987 178.638 829.649C187.887 831.311 188.605 843.393 188.605 843.393C188.605 843.393 192.632 836.767 197.854 837.929C203.075 839.092 200.937 850.736 200.937 850.736C177.709 851.181 156.98 849.417 141.128 843.393Z" fill="#9BC334"/>
<path style="mix-blend-mode:multiply" opacity="0.2" d="M2253.69 1116.32C2258.63 1105.62 2263.68 1091.04 2255.52 1089.33C2243.25 1086.76 2238.99 1112.24 2238.54 1115.29C2238.9 1112.28 2241.57 1087.07 2227.31 1089.49C2213.77 1091.77 2218.36 1113.31 2219.5 1117.87C2218.44 1114.27 2213.67 1100.64 2203.64 1105.18C2192.12 1110.39 2203.86 1122.53 2203.86 1122.53L2209.16 1130.71C2186.87 1137.85 2163.78 1145.18 2139.87 1152.69C1845.02 1127.6 1338.25 1108.07 959.883 1075.43C1128.41 1056.23 1398.6 1024.24 1502.45 1010.04C1756.52 988.92 1899.77 1012.93 1911.42 1014.28C1984.52 1022.87 2000.65 1060.33 2328.14 1091.65C2304.87 1099.54 2279.98 1107.76 2253.69 1116.32Z" fill="url(#paint3_linear_1_746)"/>
<path d="M522.825 776.876C522.825 776.876 514.295 769.509 516.683 767.464C519.071 765.419 525.51 769.228 525.51 769.228C525.51 769.228 519.625 758.106 525.51 758.231C531.395 758.356 533.729 771.967 533.729 771.967C533.729 771.967 533.448 763.445 537.858 764.28C542.267 765.115 542.595 770.117 542.595 770.117C543.326 769.169 544.296 768.432 545.405 767.981C546.515 767.529 547.724 767.381 548.909 767.55C553.155 768.057 551.391 776.915 551.391 776.915L522.825 776.876Z" fill="#C8DE32"/>
<path d="M794.31 834.698C794.31 834.698 783.664 820.315 789.487 820.315C795.309 820.315 798.447 828.416 798.447 828.416C798.447 828.416 795.637 813.697 799.938 814.368C804.238 815.039 805.401 829.251 805.401 829.251C805.401 829.251 806.892 811.847 810.693 814.345C814.494 816.842 811.52 829.75 811.52 829.75C811.52 829.75 817.14 819.659 820.613 820.487C824.086 821.314 820.613 829.415 820.613 829.415C820.613 829.415 827.895 822.805 828.558 825.45C829.222 828.096 823.922 834.706 823.922 834.706L794.31 834.698Z" fill="#99C33C"/>
<path d="M80.1639 958.866C80.1639 958.866 73.3658 947.721 76.4878 947.003C79.6097 946.285 81.881 954.48 81.881 954.48C81.881 954.48 79.8049 940.783 83.0127 940.603C86.2205 940.424 85.6195 954.651 85.6195 954.651C85.6195 954.651 87.5785 946.347 89.8263 947.417C92.0741 948.486 90.1229 955.338 90.1229 955.338C90.1229 955.338 93.3853 948.509 95.1102 951.436C95.604 952.367 95.891 953.393 95.9516 954.445C96.0122 955.497 95.845 956.55 95.4614 957.531L80.1639 958.866Z" fill="#6EA641"/>
<path d="M16.6087 894.261C16.6087 894.261 2.1775 865.003 11.1453 865.003C20.1131 865.003 23.4926 889.547 23.4926 889.547C23.4926 889.547 19.8634 864.058 28.956 865.003C38.0487 865.947 32.8585 889.547 32.8585 889.547C32.8585 889.547 35.1297 872.081 44.6204 875.859C54.1112 879.636 44.3785 890.492 44.3785 890.492C44.3785 890.492 58.2556 878.887 60.1912 886.106C62.1268 893.325 51.9492 897.094 51.9492 897.094L16.6087 894.261Z" fill="#6EAA4A"/>
<path d="M1849.19 821.681C1849.19 821.681 1834.76 792.422 1843.69 792.422C1852.62 792.422 1856.04 816.967 1856.04 816.967C1856.04 816.967 1852.41 791.478 1861.5 792.422C1870.6 793.367 1865.4 816.967 1865.4 816.967C1865.4 816.967 1867.68 799.501 1877.17 803.278C1886.66 807.055 1876.92 817.911 1876.92 817.911C1876.92 817.911 1890.8 806.306 1892.74 813.525C1894.67 820.744 1884.5 824.514 1884.5 824.514L1849.19 821.681Z" fill="#6EAA4A"/>
<path style="mix-blend-mode:screen" opacity="0.5" d="M1590.3 1019.16C1431.8 1040.8 1289.47 1053.11 1289.62 1065.53C1289.78 1077.94 1646.17 1087.65 1667.43 1083.84C1688.7 1080.02 1656.61 1010.11 1590.3 1019.16Z" fill="url(#paint4_linear_1_746)"/>
<path style="mix-blend-mode:screen" opacity="0.5" d="M1653.37 1024.13C1653.37 1024.13 1675.88 1081.29 1705.71 1082.67C1735.54 1084.04 1840.21 1047.27 1821.32 1043.96C1802.42 1040.65 1694.23 1021.59 1653.37 1024.13Z" fill="url(#paint5_linear_1_746)"/>
<g opacity="0.43">
<path d="M1567.22 354.255C1567.22 354.255 1597.42 272.489 1625.59 268.899C1653.77 265.309 1669.94 334.643 1669.94 334.643C1669.94 334.643 1674.72 320.228 1687.2 319.643C1699.67 319.057 1710.25 361.131 1710.25 361.131C1710.25 361.131 1629.74 377.059 1567.22 354.255Z" fill="url(#paint6_linear_1_746)"/>
<path d="M1567.22 354.255C1567.22 354.255 1588.04 330.186 1627.83 331.318C1667.63 332.45 1665.02 351.196 1665.02 351.196C1665.02 351.196 1701.84 343.586 1710.29 361.17C1710.29 361.17 1680.59 370.137 1629.35 369.489C1578.12 368.841 1567.22 354.255 1567.22 354.255Z" fill="url(#paint7_linear_1_746)"/>
</g>
<g opacity="0.57">
<path d="M-37.1746 314.609C-37.1746 314.609 1.33471 210.343 37.2606 205.762C73.1864 201.181 93.8147 289.604 93.8147 289.604C93.8147 289.604 99.9181 271.217 115.817 270.475C131.715 269.734 145.225 323.373 145.225 323.373C145.225 323.373 42.5601 343.688 -37.1746 314.609Z" fill="url(#paint8_linear_1_746)"/>
<path d="M-37.1746 314.609C-37.1746 314.609 -10.638 283.914 40.0937 285.358C90.8254 286.802 87.524 310.66 87.524 310.66C87.524 310.66 134.463 300.951 145.202 323.373C145.202 323.373 107.317 334.814 41.9825 333.979C-23.3521 333.144 -37.1746 314.609 -37.1746 314.609Z" fill="url(#paint9_linear_1_746)"/>
</g>
<path fill-rule="evenodd" clip-rule="evenodd" d="M1673.45 347.684L1667.32 312.751H1668.18L1674.43 347.816L1673.45 347.684Z" fill="#79023E"/>
<path fill-rule="evenodd" clip-rule="evenodd" d="M1697.2 347.34L1703.28 312.751H1704.2L1698.26 347.473L1697.2 347.34Z" fill="#79023E"/>
<path fill-rule="evenodd" clip-rule="evenodd" d="M1693.71 345.975L1696.14 311.386H1697.2L1694.76 346.107L1693.71 345.975Z" fill="#79023E"/>
<path fill-rule="evenodd" clip-rule="evenodd" d="M1678.2 345.975L1676.21 311.386L1677.28 311.378L1679.25 346.107L1678.2 345.975Z" fill="#79023E"/>
<path fill-rule="evenodd" clip-rule="evenodd" d="M1685.77 135.952V317.934H1671.02C1671.02 317.934 1614.41 291.531 1601.03 231.305C1599.6 225.01 1598.79 218.591 1598.6 212.138C1597.32 162.167 1639.56 135.952 1685.77 135.952Z" fill="url(#paint10_linear_1_746)"/>
<path fill-rule="evenodd" clip-rule="evenodd" d="M1770.54 231.274C1757.14 291.531 1700.53 317.902 1700.53 317.902H1685.77V135.952C1726.67 135.952 1764.44 156.493 1771.72 195.827V195.92C1771.97 197.286 1772.19 198.667 1772.36 200.064C1773.56 209.477 1773.07 219.887 1770.54 231.274Z" fill="url(#paint11_linear_1_746)"/>
<path fill-rule="evenodd" clip-rule="evenodd" d="M1672.02 136.678C1672.02 136.678 1614 147.104 1610.54 210.858C1607.07 274.612 1669.6 317.926 1669.6 317.926L1674.77 316.732L1672.02 136.678Z" fill="url(#paint12_linear_1_746)"/>
<path fill-rule="evenodd" clip-rule="evenodd" d="M1697.39 136.678C1697.39 136.678 1755.41 147.104 1758.88 210.858C1762.34 274.612 1699.81 317.926 1699.81 317.926L1694.64 316.732L1697.39 136.678Z" fill="url(#paint13_linear_1_746)"/>
<path fill-rule="evenodd" clip-rule="evenodd" d="M1677.97 136.209L1672.02 136.678C1672.02 136.678 1636.7 152.435 1630.96 200.267C1624.29 255.85 1670.99 317.926 1670.99 317.926H1676.78L1677.97 136.209Z" fill="url(#paint14_linear_1_746)"/>
<path fill-rule="evenodd" clip-rule="evenodd" d="M1692.1 136.209L1698.04 136.678C1698.04 136.678 1733.37 152.435 1739.11 200.267C1745.78 255.85 1699.08 317.926 1699.08 317.926H1693.29L1692.1 136.209Z" fill="url(#paint15_linear_1_746)"/>
<path fill-rule="evenodd" clip-rule="evenodd" d="M1676.78 317.926C1676.78 317.926 1636.97 208.704 1676.78 136.28C1682.63 135.643 1688.54 135.643 1694.39 136.28C1694.39 136.28 1729.72 202.78 1694.39 317.941L1676.78 317.926Z" fill="url(#paint16_linear_1_746)"/>
<path style="mix-blend-mode:multiply" opacity="0.39" fill-rule="evenodd" clip-rule="evenodd" d="M1770.54 231.274C1757.14 291.531 1700.53 317.902 1700.53 317.902H1671.02C1671.02 317.902 1614.41 291.5 1601.03 231.274C1599.6 224.978 1598.79 218.559 1598.59 212.107C1598.67 212.887 1600.98 237.923 1612.01 257.856C1622.84 277.437 1649.56 302.184 1651.36 303.839C1649.67 301.981 1624.63 279.911 1612.88 244.237C1603.51 215.884 1612.71 184.495 1619.68 175.871C1619.12 176.901 1605.55 200.775 1612.53 234.474C1619.7 269.016 1641.49 289.377 1659.12 301.591C1659.12 301.591 1634.53 262.733 1629.13 226.076C1626.05 204.721 1630.87 182.976 1642.67 164.914C1640.19 168.949 1625.09 195.444 1632.04 230.775C1639.59 269.188 1663.2 306.883 1667.36 308.28C1671.52 309.677 1670.27 296.198 1670.27 296.198C1670.27 296.198 1647.2 223.758 1665.22 164.765C1664.26 168.191 1657.41 194.781 1663.12 238.993C1669.21 286.178 1679.91 304.892 1684.62 306.016C1689.3 307.062 1704.76 273.901 1707.78 235.161C1710.67 197.965 1703.93 164.547 1703.38 161.909C1704.34 165.593 1720.16 228.621 1700.65 295.254C1700.65 295.254 1700.96 303.511 1705.57 302.278C1710.17 301.045 1736.87 254.804 1737.8 220.129C1738.69 186.508 1727.56 165.288 1726.87 164.032C1727.87 165.265 1743.95 186.118 1738.63 227.036C1733.21 268.563 1711.48 299 1710.81 299.937C1711.31 299.788 1719.43 297.158 1728.76 287.614C1738.41 277.757 1751.49 256.943 1756.14 229.799C1759.69 208.985 1756.56 194.157 1754.9 188.389C1757.53 197.138 1764.27 226.209 1749.61 257.848C1733.64 292.374 1715.36 306.867 1712.25 309.193C1716.84 306.008 1753.81 279.474 1764.5 244.362C1772.11 219.388 1772.75 206.121 1772.35 200.072C1773.56 209.476 1773.07 219.887 1770.54 231.274Z" fill="url(#paint17_linear_1_746)"/>
<path style="mix-blend-mode:screen" opacity="0.5" fill-rule="evenodd" clip-rule="evenodd" d="M1657.59 147.799C1657.59 147.799 1640.69 164.469 1635.45 187.812C1630.2 211.154 1635.73 232.296 1638.11 232.406C1640.49 232.515 1644.53 217.195 1649.86 199.487C1657.27 174.81 1666.9 153.106 1668.12 149.282C1669.34 145.457 1657.59 147.799 1657.59 147.799Z" fill="url(#paint18_linear_1_746)"/>
<path style="mix-blend-mode:screen" opacity="0.5" fill-rule="evenodd" clip-rule="evenodd" d="M1677.08 141.969C1677.08 141.969 1668.5 156.696 1662.86 184.947C1659.09 203.756 1665.1 224.75 1665.88 224.874C1666.66 224.999 1679.61 205.254 1681.7 183.402C1683.79 161.55 1677.08 141.969 1677.08 141.969Z" fill="url(#paint19_linear_1_746)"/>
<path style="mix-blend-mode:screen" opacity="0.5" fill-rule="evenodd" clip-rule="evenodd" d="M1648.87 147.089C1648.87 147.089 1630.24 155.346 1619.89 177.689C1609.55 200.033 1611.75 222.72 1613.14 224.235C1614.54 225.749 1624.98 203.405 1630.44 187.812C1635.9 172.219 1648.87 147.089 1648.87 147.089Z" fill="url(#paint20_linear_1_746)"/>
<path style="mix-blend-mode:screen" opacity="0.5" fill-rule="evenodd" clip-rule="evenodd" d="M1639.67 147.089C1626.76 151.879 1616.02 161.172 1609.42 173.257C1598.6 193.392 1599.76 214.799 1600.34 216.079C1600.93 217.359 1611.63 188.389 1614.77 177.447C1617.92 166.506 1633.72 150.944 1639.67 147.089Z" fill="url(#paint21_linear_1_746)"/>
<path fill-rule="evenodd" clip-rule="evenodd" d="M1662.95 188.53C1662.95 188.53 1661.88 180.585 1665.11 174.927C1665.11 174.927 1664.6 185.494 1662.95 188.53Z" fill="#FFFBF4"/>
<path fill-rule="evenodd" clip-rule="evenodd" d="M1642.38 170.299C1638.11 176.336 1635.67 183.476 1635.36 190.863C1637.98 187.821 1640.05 184.342 1641.47 180.585C1642.64 177.289 1642.95 173.749 1642.38 170.299Z" fill="#FFFBF4"/>
<path fill-rule="evenodd" clip-rule="evenodd" d="M1624.25 170.299C1621.45 173.461 1619.62 177.363 1618.98 181.537C1620.66 179.969 1622.06 178.121 1623.1 176.074C1623.97 174.277 1624.36 172.29 1624.25 170.299Z" fill="#FFFBF4"/>
<path fill-rule="evenodd" clip-rule="evenodd" d="M1612.74 168.043C1610.54 170.23 1609.08 173.04 1608.54 176.089C1609.86 175 1610.98 173.678 1611.82 172.187C1612.51 170.919 1612.83 169.483 1612.74 168.043Z" fill="#FFFBF4"/>
<path fill-rule="evenodd" clip-rule="evenodd" d="M1672.25 371.916L1668.35 346.56C1668.35 346.56 1687.5 341.674 1703.96 346.31L1700.68 371.916C1695.89 372.913 1691.02 373.436 1686.13 373.477C1676.87 373.477 1672.25 371.916 1672.25 371.916Z" fill="url(#paint22_radial_1_746)"/>
<path style="mix-blend-mode:multiply" opacity="0.39" fill-rule="evenodd" clip-rule="evenodd" d="M1668.96 350.563C1668.96 350.563 1671.48 366.172 1674.43 369.208C1677.37 372.244 1692.33 371.924 1697.2 366.531C1702.07 361.138 1703.96 346.31 1703.96 346.31L1700.68 371.916C1700.68 371.916 1683.96 376.482 1672.22 371.916L1668.96 350.563Z" fill="url(#paint23_linear_1_746)"/>
<path fill-rule="evenodd" clip-rule="evenodd" d="M1672.25 371.916C1672.25 371.916 1683.08 367.686 1700.71 371.916C1700.68 371.916 1686.29 377.567 1672.25 371.916Z" fill="#79023E"/>
<path fill-rule="evenodd" clip-rule="evenodd" d="M1669.6 317.926C1669.6 317.926 1682.61 311.901 1700.53 317.926C1700.53 317.933 1683.09 319.978 1669.6 317.926Z" fill="#79023E"/>
<path style="mix-blend-mode:screen" opacity="0.66" fill-rule="evenodd" clip-rule="evenodd" d="M1772.38 200.08C1772.21 198.683 1772 197.302 1771.74 195.936V195.842C1764.98 159.295 1731.89 139.003 1694.43 136.303C1688.58 135.666 1682.67 135.666 1676.82 136.303L1675.96 136.373L1672.06 136.685L1671.14 136.873C1631.05 141.867 1597.49 167.52 1598.6 212.099C1598.79 218.546 1599.61 224.96 1601.04 231.251C1612.06 280.91 1652.42 307.562 1666.29 315.405C1666.97 315.936 1667.59 316.412 1668.07 316.771L1673.13 345.592C1670.18 346.092 1668.39 346.544 1668.39 346.544L1672.29 371.901C1686.34 377.551 1700.75 371.901 1700.75 371.901L1704 346.295C1702.25 345.813 1700.48 345.428 1698.69 345.139L1703.62 316.341C1715.51 309.895 1759.03 283.134 1770.58 231.274C1773.07 219.888 1773.56 209.477 1772.38 200.08ZM1679.18 344.78L1677.7 318.683C1683.68 318.925 1689.68 318.818 1695.65 318.363L1693.81 344.562C1688.93 344.192 1684.04 344.266 1679.18 344.78ZM1669.03 317.52L1669.61 317.926C1671.87 318.269 1674.25 318.48 1676.64 318.62L1678.14 344.898C1676.63 345.069 1675.25 345.264 1674.01 345.459L1669.03 317.52ZM1697.62 344.952C1696.7 344.812 1695.78 344.71 1694.86 344.617L1696.72 318.254C1699.06 318.066 1700.53 317.902 1700.53 317.902C1700.53 317.902 1701.27 317.551 1702.55 316.88L1697.62 344.952Z" fill="url(#paint24_linear_1_746)"/>
<path fill-rule="evenodd" clip-rule="evenodd" d="M93.7834 288.73L89.3502 263.436H89.9668L94.4936 288.823L93.7834 288.73Z" fill="#790C00"/>
<path fill-rule="evenodd" clip-rule="evenodd" d="M110.978 288.48L115.379 263.436H116.043L111.742 288.581L110.978 288.48Z" fill="#790C00"/>
<path fill-rule="evenodd" clip-rule="evenodd" d="M108.449 287.497L110.213 262.452H110.978L109.214 287.59L108.449 287.497Z" fill="#790C00"/>
<path fill-rule="evenodd" clip-rule="evenodd" d="M97.2176 287.497L95.7815 262.452L96.5542 262.445L97.9825 287.59L97.2176 287.497Z" fill="#790C00"/>
<path fill-rule="evenodd" clip-rule="evenodd" d="M102.697 135.437V267.19H92.0038C92.0038 267.19 51.0126 248.077 41.3658 204.474C40.3332 199.916 39.7425 195.269 39.6019 190.598C38.6575 154.417 69.2448 135.437 102.697 135.437Z" fill="url(#paint25_linear_1_746)"/>
<path fill-rule="evenodd" clip-rule="evenodd" d="M164.074 204.474C154.373 248.1 113.381 267.213 113.381 267.213H102.697V135.437C132.316 135.437 159.672 150.304 164.925 178.782V178.852C165.112 179.836 165.268 180.835 165.393 181.849C166.256 189.41 165.81 197.064 164.074 204.474Z" fill="url(#paint26_linear_1_746)"/>
<path fill-rule="evenodd" clip-rule="evenodd" d="M92.7454 135.96C92.7454 135.96 50.7318 143.506 48.2342 189.646C45.7366 235.785 90.9971 267.166 90.9971 267.166L94.7357 266.3L92.7454 135.96Z" fill="url(#paint27_linear_1_746)"/>
<path fill-rule="evenodd" clip-rule="evenodd" d="M111.11 135.96C111.11 135.96 153.124 143.506 155.598 189.669C158.072 235.832 112.835 267.19 112.835 267.19L109.097 266.323L111.11 135.96Z" fill="url(#paint28_linear_1_746)"/>
<path fill-rule="evenodd" clip-rule="evenodd" d="M97.0536 135.624L92.7454 135.96C92.7454 135.96 67.1766 147.369 63.0166 182.005C58.1854 222.244 92.0039 267.19 92.0039 267.19H96.1873L97.0536 135.624Z" fill="url(#paint29_linear_1_746)"/>
<path fill-rule="evenodd" clip-rule="evenodd" d="M107.27 135.624L111.579 135.96C111.579 135.96 137.155 147.369 141.307 182.005C146.139 222.244 112.328 267.19 112.328 267.19H108.137L107.27 135.624Z" fill="url(#paint30_linear_1_746)"/>
<path fill-rule="evenodd" clip-rule="evenodd" d="M96.1873 267.19C96.1873 267.19 67.3795 188.108 96.1873 135.671C100.429 135.213 104.707 135.213 108.948 135.671C108.948 135.671 134.525 183.816 108.948 267.197L96.1873 267.19Z" fill="url(#paint31_linear_1_746)"/>
<path style="mix-blend-mode:multiply" opacity="0.39" fill-rule="evenodd" clip-rule="evenodd" d="M164.074 204.474C154.373 248.1 113.381 267.213 113.381 267.213H92.0039C92.0039 267.213 51.0127 248.077 41.3658 204.474C40.3333 199.916 39.7426 195.269 39.6019 190.598C39.6566 191.175 41.3268 209.289 49.319 223.719C57.1239 237.9 76.5034 255.811 77.8068 257.013C76.5814 255.663 58.4507 239.687 49.9434 213.863C43.1766 193.329 49.8263 170.603 54.8683 164.36C54.4624 165.14 44.6361 182.395 49.6936 206.792C54.8839 231.766 70.6575 246.539 83.4263 255.397C83.4263 255.397 65.6156 227.263 61.7053 200.72C59.4829 185.258 62.9706 169.515 71.5161 156.438C69.7209 159.357 58.7863 178.54 63.8127 204.123C69.2761 231.937 86.3688 259.221 89.3892 260.236C92.4097 261.251 91.4966 251.487 91.4966 251.487C91.4966 251.487 74.7941 199.042 87.8361 156.337C87.1492 158.811 82.1853 178.064 86.3219 210.07C90.7317 244.229 98.4741 257.785 101.885 258.597C105.264 259.378 116.464 235.348 118.65 207.299C120.749 180.366 115.863 156.173 115.465 154.269C116.16 156.93 127.618 202.562 113.491 250.808C113.491 250.808 113.717 256.786 117.05 255.905C120.382 255.023 139.684 221.565 140.379 196.428C141.034 172.086 132.979 156.719 132.496 155.845C133.221 156.735 144.866 171.836 141.011 201.461C137.108 231.524 121.358 253.563 120.866 254.242C121.225 254.133 127.11 252.229 133.885 245.314C140.909 238.181 150.345 223.111 153.709 203.459C156.285 188.389 154.014 177.65 152.812 173.475C157.567 190.154 156.211 207.983 148.987 223.751C137.42 248.725 124.191 259.245 121.936 260.923C125.253 258.581 152.031 239.406 159.766 213.987C165.276 195.897 165.737 186.305 165.448 181.919C166.285 189.461 165.82 197.09 164.074 204.474Z" fill="url(#paint32_linear_1_746)"/>
<path style="mix-blend-mode:screen" opacity="0.5" fill-rule="evenodd" clip-rule="evenodd" d="M82.3024 144.014C82.3024 144.014 70.0643 156.087 66.2712 172.983C62.478 189.88 66.4741 205.2 68.1912 205.27C69.9082 205.34 72.8741 194.258 76.6985 181.435C82.0682 163.571 89.0458 147.877 89.9668 145.091C90.8878 142.304 82.3024 144.014 82.3024 144.014Z" fill="url(#paint33_linear_1_746)"/>
<path style="mix-blend-mode:screen" opacity="0.5" fill-rule="evenodd" clip-rule="evenodd" d="M96.4137 139.791C96.4137 139.791 90.1698 150.46 86.1113 170.907C83.3874 184.526 87.7425 199.737 88.3045 199.783C88.8664 199.83 98.2557 185.587 99.762 169.752C101.268 153.917 96.4137 139.791 96.4137 139.791Z" fill="url(#paint34_linear_1_746)"/>
<path style="mix-blend-mode:screen" opacity="0.5" fill-rule="evenodd" clip-rule="evenodd" d="M75.9882 143.499C75.9882 143.499 62.5014 149.477 55.0087 165.655C47.516 181.833 49.1082 198.23 50.1229 199.354C51.1375 200.478 58.7082 184.268 62.6107 172.983C66.5131 161.698 75.9882 143.499 75.9882 143.499Z" fill="url(#paint35_linear_1_746)"/>
<path style="mix-blend-mode:screen" opacity="0.5" fill-rule="evenodd" clip-rule="evenodd" d="M69.3307 143.499C59.9814 146.97 52.2011 153.702 47.4224 162.455C39.6175 177.026 40.398 192.525 40.8507 193.454C41.3034 194.383 49.0224 173.405 51.3015 165.452C53.5805 157.5 65.0224 146.292 69.3307 143.499Z" fill="url(#paint36_linear_1_746)"/>
<path fill-rule="evenodd" clip-rule="evenodd" d="M86.1815 173.498C86.1815 173.498 85.401 167.747 87.7425 163.657C87.7425 163.657 87.4147 171.305 86.1815 173.498Z" fill="#FFFBE1"/>
<path fill-rule="evenodd" clip-rule="evenodd" d="M71.2819 160.301C68.2031 164.677 66.4475 169.846 66.2244 175.192C68.1219 172.987 69.6195 170.467 70.6497 167.747C71.4885 165.359 71.7061 162.797 71.2819 160.301Z" fill="#FFFBE1"/>
<path fill-rule="evenodd" clip-rule="evenodd" d="M58.162 160.301C56.1361 162.593 54.8113 165.418 54.3455 168.441C55.5614 167.308 56.5703 165.972 57.3269 164.492C57.9541 163.188 58.2414 161.746 58.162 160.301Z" fill="#FFFBE1"/>
<path fill-rule="evenodd" clip-rule="evenodd" d="M49.8264 158.67C48.2542 160.261 47.2081 162.296 46.8293 164.5C47.7729 163.712 48.5661 162.76 49.1708 161.69C49.6698 160.766 49.8971 159.719 49.8264 158.67Z" fill="#FFFBE1"/>
<path fill-rule="evenodd" clip-rule="evenodd" d="M92.8781 306.274L90.0605 287.918C90.0605 287.918 103.922 284.383 115.817 287.739L113.475 306.274C110.006 306.997 106.474 307.376 102.931 307.405C96.2576 307.405 92.8781 306.274 92.8781 306.274Z" fill="url(#paint37_radial_1_746)"/>
<path style="mix-blend-mode:multiply" opacity="0.39" fill-rule="evenodd" clip-rule="evenodd" d="M90.5366 290.813C90.5366 290.813 92.3552 302.13 94.4937 304.315C96.6322 306.5 107.45 306.282 110.978 302.379C114.505 298.477 115.871 287.739 115.871 287.739L113.53 306.274C113.53 306.274 101.424 309.583 92.9171 306.274L90.5366 290.813Z" fill="url(#paint38_linear_1_746)"/>
<path fill-rule="evenodd" clip-rule="evenodd" d="M92.8779 306.274C92.8779 306.274 100.683 303.215 113.491 306.274C113.522 306.274 103.079 310.371 92.8779 306.274Z" fill="#790C00"/>
<path fill-rule="evenodd" clip-rule="evenodd" d="M90.9971 267.19C90.9971 267.19 100.418 262.827 113.381 267.19C113.381 267.19 100.761 268.641 90.9971 267.19Z" fill="#790C00"/>
<path style="mix-blend-mode:screen" opacity="0.66" fill-rule="evenodd" clip-rule="evenodd" d="M165.409 181.841C165.284 180.801 165.128 179.802 164.94 178.844V178.774C160.047 152.317 136.062 137.622 108.972 135.671C104.73 135.213 100.452 135.213 96.2107 135.671L95.5941 135.725L92.7687 135.944L92.1053 136.084C63.0555 139.698 38.7589 158.288 39.5629 190.559C39.7138 195.244 40.3176 199.905 41.3658 204.474C49.3033 240.374 78.5248 259.69 88.5697 265.348L89.8575 266.339L93.5258 287.2C91.3872 287.567 90.0916 287.895 90.0916 287.895L92.878 306.274C103.024 310.371 113.491 306.274 113.491 306.274L115.832 287.739C114.569 287.387 113.287 287.108 111.992 286.903L115.551 266.05C124.137 261.368 155.684 242.005 164.035 204.451C165.787 197.049 166.252 189.401 165.409 181.841ZM97.9277 286.63L96.8585 267.736C101.191 267.911 105.53 267.832 109.854 267.502L108.488 286.466C104.97 286.204 101.436 286.259 97.9277 286.63ZM90.5833 266.909C90.8331 267.096 90.997 267.205 90.997 267.205C92.636 267.447 94.3531 267.603 96.0858 267.705L97.1785 286.732C96.078 286.857 95.079 286.997 94.1892 287.138L90.5833 266.909ZM111.282 286.786C110.611 286.693 109.947 286.615 109.284 286.552L110.626 267.463C112.328 267.322 113.381 267.205 113.381 267.205C113.381 267.205 113.92 266.956 114.849 266.464L111.282 286.786Z" fill="url(#paint39_linear_1_746)"/>
<g opacity="0.57">
<path d="M1718.99 229.76C1718.99 229.76 1749.18 147.994 1777.36 144.404C1805.53 140.814 1821.71 210.155 1821.71 210.155C1821.71 210.155 1826.49 195.741 1838.96 195.156C1851.43 194.57 1862.02 236.636 1862.02 236.636C1862.02 236.636 1781.51 252.572 1718.99 229.76Z" fill="url(#paint40_linear_1_746)"/>
<path d="M1718.99 229.76C1718.99 229.76 1739.8 205.691 1779.6 206.823C1819.4 207.955 1816.79 226.67 1816.79 226.67C1816.79 226.67 1853.6 219.052 1862.02 236.636C1862.02 236.636 1832.31 245.611 1781.08 244.955C1729.85 244.3 1718.99 229.76 1718.99 229.76Z" fill="url(#paint41_linear_1_746)"/>
</g>
<path fill-rule="evenodd" clip-rule="evenodd" d="M1801.3 182.403L1799.74 173.475H1799.96L1801.55 182.442L1801.3 182.403Z" fill="#790C00"/>
<path fill-rule="evenodd" clip-rule="evenodd" d="M1807.38 182.317L1808.94 173.475H1809.16L1807.65 182.356L1807.38 182.317Z" fill="#790C00"/>
<path fill-rule="evenodd" clip-rule="evenodd" d="M1806.49 181.966L1807.11 173.124H1807.38L1806.75 182.005L1806.49 181.966Z" fill="#790C00"/>
<path fill-rule="evenodd" clip-rule="evenodd" d="M1802.52 181.966L1802.01 173.124H1802.29L1802.79 182.005L1802.52 181.966Z" fill="#790C00"/>
<path fill-rule="evenodd" clip-rule="evenodd" d="M1804.49 128.264V174.817H1800.71C1800.71 174.817 1786.23 168.067 1782.81 152.653C1782.45 151.046 1782.24 149.407 1782.19 147.76C1781.85 134.968 1792.64 128.264 1804.49 128.264Z" fill="url(#paint42_linear_1_746)"/>
<path fill-rule="evenodd" clip-rule="evenodd" d="M1826.13 152.637C1822.7 168.051 1808.23 174.802 1808.23 174.802H1804.49V128.264C1814.95 128.264 1824.6 133.517 1826.47 143.577C1826.54 143.92 1826.59 144.271 1826.63 144.63C1826.93 147.308 1826.76 150.018 1826.13 152.637Z" fill="url(#paint43_linear_1_746)"/>
<path fill-rule="evenodd" clip-rule="evenodd" d="M1800.94 128.452C1800.94 128.452 1786.11 131.121 1785.22 147.416C1784.33 163.712 1800.32 174.817 1800.32 174.817L1801.64 174.505L1800.94 128.452Z" fill="url(#paint44_linear_1_746)"/>
<path fill-rule="evenodd" clip-rule="evenodd" d="M1807.43 128.452C1807.43 128.452 1822.26 131.121 1823.15 147.416C1824.04 163.712 1808.05 174.817 1808.05 174.817L1806.73 174.505L1807.43 128.452Z" fill="url(#paint45_linear_1_746)"/>
<path fill-rule="evenodd" clip-rule="evenodd" d="M1802.46 128.335L1800.9 128.452C1800.9 128.452 1791.87 132.479 1790.4 144.716C1788.7 158.928 1800.64 174.802 1800.64 174.802H1802.15L1802.46 128.335Z" fill="url(#paint46_linear_1_746)"/>
<path fill-rule="evenodd" clip-rule="evenodd" d="M1806.05 128.335L1807.57 128.452C1807.57 128.452 1816.6 132.479 1818.07 144.716C1819.77 158.928 1807.83 174.802 1807.83 174.802H1806.35L1806.05 128.335Z" fill="url(#paint47_linear_1_746)"/>
<path fill-rule="evenodd" clip-rule="evenodd" d="M1802.15 174.817C1802.15 174.817 1792 146.886 1802.15 128.366C1803.64 128.203 1805.15 128.203 1806.65 128.366C1806.65 128.366 1815.69 145.364 1806.65 174.817H1802.15Z" fill="url(#paint48_linear_1_746)"/>
<path style="mix-blend-mode:multiply" opacity="0.39" fill-rule="evenodd" clip-rule="evenodd" d="M1826.13 152.637C1822.7 168.051 1808.23 174.802 1808.23 174.802H1800.68C1800.68 174.802 1786.2 168.051 1782.78 152.637C1782.42 151.03 1782.21 149.392 1782.16 147.744C1782.16 147.939 1782.77 154.339 1785.58 159.451C1788.4 164.562 1795.19 170.79 1795.65 171.212C1791.2 166.991 1787.83 161.764 1785.81 155.97C1783.42 148.72 1785.76 140.697 1787.54 138.488C1785.24 143.128 1784.6 148.417 1785.72 153.473C1787.55 162.307 1793.12 167.52 1797.64 170.642C1797.64 170.642 1791.34 160.707 1789.96 151.334C1789.19 145.883 1790.42 140.335 1793.43 135.725C1790.53 140.832 1789.57 146.808 1790.7 152.567C1792.64 162.385 1798.67 172.023 1799.74 172.382C1800.81 172.741 1800.48 169.261 1800.48 169.261C1800.48 169.261 1794.58 150.741 1799.2 135.655C1798.95 136.529 1797.2 143.327 1798.66 154.635C1800.22 166.701 1802.95 171.485 1804.12 171.805C1805.32 172.07 1809.27 163.595 1810.04 153.683C1810.47 147.417 1810.1 141.123 1808.92 134.953C1809.16 135.897 1813.21 152.013 1808.22 169.05C1808.22 169.05 1808.3 171.165 1809.48 170.853C1810.65 170.541 1817.48 158.709 1817.72 149.843C1817.95 141.259 1815.1 135.796 1814.93 135.499C1815.19 135.819 1819.3 141.149 1817.94 151.615C1817 158.282 1814.57 164.652 1810.83 170.252C1812.58 169.58 1814.15 168.511 1815.42 167.13C1817.89 164.609 1821.24 159.287 1822.45 152.349C1823.12 148.839 1823.02 145.222 1822.13 141.758C1823.81 147.65 1823.33 153.944 1820.78 159.513C1816.69 168.34 1812.02 172.047 1811.22 172.648C1812.4 171.828 1821.85 165.046 1824.59 156.064C1826.53 149.68 1826.7 146.293 1826.59 144.739C1826.89 147.379 1826.73 150.051 1826.13 152.637Z" fill="url(#paint49_linear_1_746)"/>
<path style="mix-blend-mode:screen" opacity="0.5" fill-rule="evenodd" clip-rule="evenodd" d="M1797.25 131.293C1794.52 134.165 1792.57 137.687 1791.59 141.524C1790.24 147.494 1791.66 152.903 1792.27 152.926C1792.87 152.95 1793.91 149.024 1795.27 144.513C1797.17 138.207 1799.63 132.65 1799.95 131.675C1800.27 130.699 1797.25 131.293 1797.25 131.293Z" fill="url(#paint50_linear_1_746)"/>
<path style="mix-blend-mode:screen" opacity="0.5" fill-rule="evenodd" clip-rule="evenodd" d="M1802.23 129.802C1802.23 129.802 1800.05 133.571 1798.59 140.79C1797.63 145.606 1799.17 150.936 1799.38 151.006C1799.58 151.077 1802.9 145.988 1803.43 140.4C1803.7 136.824 1803.3 133.227 1802.23 129.802Z" fill="url(#paint51_linear_1_746)"/>
<path style="mix-blend-mode:screen" opacity="0.5" fill-rule="evenodd" clip-rule="evenodd" d="M1795.02 131.113C1791.75 132.814 1789.14 135.562 1787.61 138.917C1784.96 144.63 1785.53 150.429 1785.88 150.819C1786.23 151.209 1788.91 145.489 1790.3 141.501C1791.69 137.956 1793.26 134.489 1795.02 131.113Z" fill="url(#paint52_linear_1_746)"/>
<path style="mix-blend-mode:screen" opacity="0.5" fill-rule="evenodd" clip-rule="evenodd" d="M1792.67 131.113C1789.37 132.338 1786.62 134.717 1784.93 137.809C1782.17 142.952 1782.46 148.431 1782.59 148.735C1782.71 149.04 1785.47 141.649 1786.28 138.855C1787.08 136.061 1791.15 132.104 1792.67 131.113Z" fill="url(#paint53_linear_1_746)"/>
<path fill-rule="evenodd" clip-rule="evenodd" d="M1798.62 141.711C1798.47 140.522 1798.67 139.316 1799.17 138.231C1799.17 138.231 1799.02 140.931 1798.62 141.711Z" fill="#FFFBE1"/>
<path fill-rule="evenodd" clip-rule="evenodd" d="M1793.36 137.052C1792.27 138.596 1791.65 140.419 1791.57 142.304C1792.24 141.529 1792.77 140.641 1793.13 139.682C1793.43 138.839 1793.51 137.934 1793.36 137.052Z" fill="#FFFBE1"/>
<path fill-rule="evenodd" clip-rule="evenodd" d="M1788.72 137.052C1788.01 137.859 1787.54 138.857 1787.38 139.924C1787.81 139.523 1788.17 139.05 1788.43 138.527C1788.65 138.068 1788.75 137.56 1788.72 137.052Z" fill="#FFFBE1"/>
<path fill-rule="evenodd" clip-rule="evenodd" d="M1785.76 136.475C1785.2 137.035 1784.83 137.751 1784.69 138.527C1785.02 138.249 1785.3 137.914 1785.52 137.536C1785.7 137.211 1785.78 136.843 1785.76 136.475Z" fill="#FFFBE1"/>
<path fill-rule="evenodd" clip-rule="evenodd" d="M1801 188.6L1800 182.122C1800 182.122 1804.9 180.866 1809.11 182.052L1808.27 188.6C1807.05 188.859 1805.8 188.995 1804.55 189.006C1803.35 189.048 1802.16 188.911 1801 188.6Z" fill="url(#paint54_radial_1_746)"/>
<path style="mix-blend-mode:multiply" opacity="0.39" fill-rule="evenodd" clip-rule="evenodd" d="M1800.16 183.145C1800.16 183.145 1800.8 187.14 1801.55 187.913C1802.3 188.686 1806.13 188.608 1807.38 187.226C1808.62 185.845 1809.11 182.052 1809.11 182.052L1808.27 188.6C1808.27 188.6 1804 189.771 1801 188.6L1800.16 183.145Z" fill="url(#paint55_linear_1_746)"/>
<path fill-rule="evenodd" clip-rule="evenodd" d="M1801 188.6C1801 188.6 1803.76 187.523 1808.27 188.6C1805.92 189.438 1803.35 189.438 1801 188.6Z" fill="#790C00"/>
<path fill-rule="evenodd" clip-rule="evenodd" d="M1800.32 174.817C1802.87 173.871 1805.68 173.871 1808.23 174.817C1805.6 175.101 1802.95 175.101 1800.32 174.817Z" fill="#790C00"/>
<path style="mix-blend-mode:screen" opacity="0.66" fill-rule="evenodd" clip-rule="evenodd" d="M1826.6 144.661C1826.56 144.302 1826.51 143.951 1826.44 143.608C1824.7 134.243 1816.24 129.076 1806.67 128.382C1805.17 128.219 1803.66 128.219 1802.16 128.382H1801.94L1800.94 128.46L1800.71 128.506C1790.46 129.786 1781.88 136.311 1782.17 147.744C1782.22 149.392 1782.42 151.03 1782.79 152.637C1785.61 165.335 1795.93 172.148 1799.47 174.154L1799.93 174.505L1801.23 181.873C1800.44 182.005 1800.01 182.122 1800.01 182.122L1801.01 188.6C1803.36 189.438 1805.93 189.438 1808.28 188.6L1809.12 182.052C1808.67 181.929 1808.22 181.833 1807.76 181.763L1809.01 174.396C1812.06 172.749 1823.19 165.905 1826.14 152.637C1826.75 150.025 1826.91 147.327 1826.6 144.661ZM1802.77 181.662L1802.39 174.989C1803.92 175.051 1805.46 175.025 1806.99 174.911L1806.51 181.607C1805.26 181.514 1804.01 181.532 1802.77 181.662ZM1800.17 174.693L1800.32 174.802C1800.9 174.888 1801.51 174.942 1802.12 174.973L1802.51 181.693L1801.45 181.834L1800.17 174.693ZM1807.48 181.716C1807.25 181.677 1807.02 181.654 1806.78 181.631L1807.26 174.888L1808.23 174.802L1808.75 174.536L1807.48 181.716Z" fill="url(#paint56_linear_1_746)"/>
<path d="M57.9747 1075.32C57.9747 1075.32 43.5435 1046.06 52.5113 1046.06C61.4791 1046.06 64.8586 1070.61 64.8586 1070.61C64.8586 1070.61 61.2293 1045.12 70.322 1046.06C79.4147 1047.01 74.2244 1070.61 74.2244 1070.61C74.2244 1070.61 76.4957 1053.14 85.9864 1056.92C95.4771 1060.7 85.7444 1071.55 85.7444 1071.55C85.7444 1071.55 99.6215 1059.95 101.557 1067.17C103.493 1074.39 93.3152 1078.15 93.3152 1078.15L57.9747 1075.32Z" fill="#6EAA4A"/>
</g>
<defs>
<linearGradient id="paint0_linear_1_746" x1="975.485" y1="821.017" x2="975.485" y2="0" gradientUnits="userSpaceOnUse">
<stop offset="0.01" stop-color="#FFFFDB"/>
<stop offset="0.12" stop-color="#9DFFD1"/>
<stop offset="0.42" stop-color="#5ED0E4"/>
<stop offset="0.69" stop-color="#2BA9F2"/>
<stop offset="0.89" stop-color="#0C92FC"/>
<stop offset="1" stop-color="#0089FF"/>
</linearGradient>
<linearGradient id="paint1_linear_1_746" x1="393.436" y1="662.012" x2="393.436" y2="681.491" gradientUnits="userSpaceOnUse">
<stop stop-color="#013F01"/>
<stop offset="1" stop-color="#80BB4E"/>
</linearGradient>
<linearGradient id="paint2_linear_1_746" x1="950.174" y1="789.137" x2="950.174" y2="1014.79" gradientUnits="userSpaceOnUse">
<stop stop-color="#BECE12"/>
<stop offset="0.37" stop-color="#A1C52E"/>
<stop offset="0.76" stop-color="#89BE45"/>
<stop offset="1" stop-color="#80BB4E"/>
</linearGradient>
<linearGradient id="paint3_linear_1_746" x1="960.033" y1="1089.09" x2="2327.83" y2="1071.9" gradientUnits="userSpaceOnUse">
<stop stop-color="#AD4ED7"/>
<stop offset="0.99" stop-color="#AE04E8"/>
</linearGradient>
<linearGradient id="paint4_linear_1_746" x1="1827.79" y1="824.978" x2="966.194" y2="1440.83" gradientUnits="userSpaceOnUse">
<stop offset="0.01" stop-color="#FFD586"/>
<stop offset="1" stop-color="#FF7649"/>
</linearGradient>
<linearGradient id="paint5_linear_1_746" x1="1897.12" y1="921.973" x2="1035.52" y2="1537.83" gradientUnits="userSpaceOnUse">
<stop offset="0.01" stop-color="#FFD586"/>
<stop offset="1" stop-color="#FF7649"/>
</linearGradient>
<linearGradient id="paint6_linear_1_746" x1="1639.93" y1="369.261" x2="1629.57" y2="268.484" gradientUnits="userSpaceOnUse">
<stop stop-color="#B3F0FF"/>
<stop offset="0.23" stop-color="#CBF6FF"/>
<stop offset="0.48" stop-color="#DFFBFF"/>
<stop offset="0.74" stop-color="#EBFEFF"/>
<stop offset="1" stop-color="#EFFFFF"/>
</linearGradient>
<linearGradient id="paint7_linear_1_746" x1="1640.1" y1="370.969" x2="1635.86" y2="329.683" gradientUnits="userSpaceOnUse">
<stop stop-color="#B3CEFF"/>
<stop offset="0.17" stop-color="#B9D5FF"/>
<stop offset="0.58" stop-color="#C4E1FF"/>
<stop offset="1" stop-color="#C7E5FF"/>
</linearGradient>
<linearGradient id="paint8_linear_1_746" x1="55.5387" y1="333.746" x2="42.3268" y2="205.23" gradientUnits="userSpaceOnUse">
<stop stop-color="#B3F0FF"/>
<stop offset="0.23" stop-color="#CBF6FF"/>
<stop offset="0.48" stop-color="#DFFBFF"/>
<stop offset="0.74" stop-color="#EBFEFF"/>
<stop offset="1" stop-color="#EFFFFF"/>
</linearGradient>
<linearGradient id="paint9_linear_1_746" x1="55.763" y1="335.927" x2="50.351" y2="283.283" gradientUnits="userSpaceOnUse">
<stop stop-color="#B3CEFF"/>
<stop offset="0.17" stop-color="#B9D5FF"/>
<stop offset="0.58" stop-color="#C4E1FF"/>
<stop offset="1" stop-color="#C7E5FF"/>
</linearGradient>
<linearGradient id="paint10_linear_1_746" x1="1642.15" y1="317.934" x2="1642.15" y2="135.952" gradientUnits="userSpaceOnUse">
<stop stop-color="#FF8631"/>
<stop offset="1" stop-color="#FFCC1B"/>
</linearGradient>
<linearGradient id="paint11_linear_1_746" x1="1729.38" y1="317.934" x2="1729.38" y2="135.952" gradientUnits="userSpaceOnUse">
<stop stop-color="#FF8631"/>
<stop offset="1" stop-color="#FFCC1B"/>
</linearGradient>
<linearGradient id="paint12_linear_1_746" x1="1642.58" y1="317.926" x2="1642.58" y2="136.678" gradientUnits="userSpaceOnUse">
<stop stop-color="#AB4AD4"/>
<stop offset="1" stop-color="#FF6FF4"/>
</linearGradient>
<linearGradient id="paint13_linear_1_746" x1="1726.83" y1="317.926" x2="1726.83" y2="136.678" gradientUnits="userSpaceOnUse">
<stop stop-color="#AB4AD4"/>
<stop offset="1" stop-color="#FF6FF4"/>
</linearGradient>
<linearGradient id="paint14_linear_1_746" x1="1654.13" y1="317.926" x2="1654.13" y2="136.209" gradientUnits="userSpaceOnUse">
<stop stop-color="#FF8631"/>
<stop offset="1" stop-color="#FFCC1B"/>
</linearGradient>
<linearGradient id="paint15_linear_1_746" x1="1715.92" y1="317.926" x2="1715.92" y2="136.209" gradientUnits="userSpaceOnUse">
<stop stop-color="#FF8631"/>
<stop offset="1" stop-color="#FFCC1B"/>
</linearGradient>
<linearGradient id="paint16_linear_1_746" x1="1684.59" y1="317.926" x2="1684.59" y2="135.796" gradientUnits="userSpaceOnUse">
<stop stop-color="#AB4AD4"/>
<stop offset="1" stop-color="#FF6FF4"/>
</linearGradient>
<linearGradient id="paint17_linear_1_746" x1="1685.78" y1="317.934" x2="1685.78" y2="161.925" gradientUnits="userSpaceOnUse">
<stop offset="0.01" stop-color="#9F2F70"/>
<stop offset="1" stop-color="#FFA2A8"/>
</linearGradient>
<linearGradient id="paint18_linear_1_746" x1="1650.74" y1="232.406" x2="1650.74" y2="147.089" gradientUnits="userSpaceOnUse">
<stop/>
<stop offset="1" stop-color="#D99022"/>
</linearGradient>
<linearGradient id="paint19_linear_1_746" x1="1671.87" y1="224.874" x2="1671.87" y2="141.969" gradientUnits="userSpaceOnUse">
<stop/>
<stop offset="1" stop-color="#D99022"/>
</linearGradient>
<linearGradient id="paint20_linear_1_746" x1="1630.4" y1="224.305" x2="1630.4" y2="147.089" gradientUnits="userSpaceOnUse">
<stop/>
<stop offset="1" stop-color="#D99022"/>
</linearGradient>
<linearGradient id="paint21_linear_1_746" x1="1619.83" y1="216.126" x2="1619.83" y2="147.089" gradientUnits="userSpaceOnUse">
<stop/>
<stop offset="1" stop-color="#D99022"/>
</linearGradient>
<radialGradient id="paint22_radial_1_746" cx="0" cy="0" r="1" gradientUnits="userSpaceOnUse" gradientTransform="translate(1678.27 352.522) scale(20.878 20.8766)">
<stop stop-color="#FF5713"/>
<stop offset="0.99" stop-color="#AE2544"/>
</radialGradient>
<linearGradient id="paint23_linear_1_746" x1="1668.96" y1="360.132" x2="1703.96" y2="360.132" gradientUnits="userSpaceOnUse">
<stop offset="0.01" stop-color="#9F2F70"/>
<stop offset="1" stop-color="#FFA2A8"/>
</linearGradient>
<linearGradient id="paint24_linear_1_746" x1="1598.54" y1="255.116" x2="1772.99" y2="255.116" gradientUnits="userSpaceOnUse">
<stop stop-color="#46BEED"/>
<stop offset="1"/>
</linearGradient>
<linearGradient id="paint25_linear_1_746" x1="71.1258" y1="267.19" x2="71.1258" y2="135.437" gradientUnits="userSpaceOnUse">
<stop stop-color="#FFB71E"/>
<stop offset="1" stop-color="#FFFE05"/>
</linearGradient>
<linearGradient id="paint26_linear_1_746" x1="134.275" y1="267.19" x2="134.275" y2="135.437" gradientUnits="userSpaceOnUse">
<stop stop-color="#FFB71E"/>
<stop offset="1" stop-color="#FFFE05"/>
</linearGradient>
<linearGradient id="paint27_linear_1_746" x1="71.4303" y1="267.19" x2="71.4303" y2="135.96" gradientUnits="userSpaceOnUse">
<stop stop-color="#D40076"/>
<stop offset="1" stop-color="#FF5C7A"/>
</linearGradient>
<linearGradient id="paint28_linear_1_746" x1="132.433" y1="267.19" x2="132.433" y2="135.96" gradientUnits="userSpaceOnUse">
<stop stop-color="#D40076"/>
<stop offset="1" stop-color="#FF5C7A"/>
</linearGradient>
<linearGradient id="paint29_linear_1_746" x1="79.7971" y1="267.19" x2="79.7971" y2="135.624" gradientUnits="userSpaceOnUse">
<stop stop-color="#FFB71E"/>
<stop offset="1" stop-color="#FFFE05"/>
</linearGradient>
<linearGradient id="paint30_linear_1_746" x1="124.527" y1="267.19" x2="124.527" y2="135.624" gradientUnits="userSpaceOnUse">
<stop stop-color="#FFB71E"/>
<stop offset="1" stop-color="#FFFE05"/>
</linearGradient>
<linearGradient id="paint31_linear_1_746" x1="101.846" y1="267.19" x2="101.846" y2="135.327" gradientUnits="userSpaceOnUse">
<stop stop-color="#D40076"/>
<stop offset="1" stop-color="#FF5C7A"/>
</linearGradient>
<linearGradient id="paint32_linear_1_746" x1="102.704" y1="267.19" x2="102.704" y2="154.245" gradientUnits="userSpaceOnUse">
<stop offset="0.01" stop-color="#9F2B23"/>
<stop offset="1" stop-color="#FFAE8F"/>
</linearGradient>
<linearGradient id="paint33_linear_1_746" x1="77.3385" y1="205.27" x2="77.3385" y2="143.499" gradientUnits="userSpaceOnUse">
<stop/>
<stop offset="1" stop-color="#D9B512"/>
</linearGradient>
<linearGradient id="paint34_linear_1_746" x1="92.6362" y1="199.815" x2="92.6362" y2="139.791" gradientUnits="userSpaceOnUse">
<stop/>
<stop offset="1" stop-color="#D9B512"/>
</linearGradient>
<linearGradient id="paint35_linear_1_746" x1="62.6107" y1="199.401" x2="62.6107" y2="143.499" gradientUnits="userSpaceOnUse">
<stop/>
<stop offset="1" stop-color="#D9B512"/>
</linearGradient>
<linearGradient id="paint36_linear_1_746" x1="54.9619" y1="193.485" x2="54.9619" y2="143.499" gradientUnits="userSpaceOnUse">
<stop/>
<stop offset="1" stop-color="#D9B512"/>
</linearGradient>
<radialGradient id="paint37_radial_1_746" cx="0" cy="0" r="1" gradientUnits="userSpaceOnUse" gradientTransform="translate(97.2723 292.234) scale(15.118 15.117)">
<stop stop-color="#FF9700"/>
<stop offset="0.99" stop-color="#AE3818"/>
</radialGradient>
<linearGradient id="paint38_linear_1_746" x1="90.5366" y1="297.744" x2="115.871" y2="297.744" gradientUnits="userSpaceOnUse">
<stop offset="0.01" stop-color="#9F2B23"/>
<stop offset="1" stop-color="#FFAE8F"/>
</linearGradient>
<linearGradient id="paint39_linear_1_746" x1="39.5472" y1="221.706" x2="165.846" y2="221.706" gradientUnits="userSpaceOnUse">
<stop stop-color="#3442ED"/>
<stop offset="1"/>
</linearGradient>
<linearGradient id="paint40_linear_1_746" x1="1791.7" y1="244.771" x2="1781.34" y2="143.994" gradientUnits="userSpaceOnUse">
<stop stop-color="#B3F0FF"/>
<stop offset="0.23" stop-color="#CBF6FF"/>
<stop offset="0.48" stop-color="#DFFBFF"/>
<stop offset="0.74" stop-color="#EBFEFF"/>
<stop offset="1" stop-color="#EFFFFF"/>
</linearGradient>
<linearGradient id="paint41_linear_1_746" x1="1791.87" y1="246.479" x2="1787.63" y2="205.193" gradientUnits="userSpaceOnUse">
<stop stop-color="#B3CEFF"/>
<stop offset="0.17" stop-color="#B9D5FF"/>
<stop offset="0.58" stop-color="#C4E1FF"/>
<stop offset="1" stop-color="#C7E5FF"/>
</linearGradient>
<linearGradient id="paint42_linear_1_746" x1="1793.3" y1="174.802" x2="1793.3" y2="128.264" gradientUnits="userSpaceOnUse">
<stop stop-color="#FFB71E"/>
<stop offset="1" stop-color="#FFFE05"/>
</linearGradient>
<linearGradient id="paint43_linear_1_746" x1="1815.61" y1="174.802" x2="1815.61" y2="128.264" gradientUnits="userSpaceOnUse">
<stop stop-color="#FFB71E"/>
<stop offset="1" stop-color="#FFFE05"/>
</linearGradient>
<linearGradient id="paint44_linear_1_746" x1="1793.41" y1="174.802" x2="1793.41" y2="128.452" gradientUnits="userSpaceOnUse">
<stop stop-color="#D40076"/>
<stop offset="1" stop-color="#FF5C7A"/>
</linearGradient>
<linearGradient id="paint45_linear_1_746" x1="1814.95" y1="174.802" x2="1814.95" y2="128.452" gradientUnits="userSpaceOnUse">
<stop stop-color="#D40076"/>
<stop offset="1" stop-color="#FF5C7A"/>
</linearGradient>
<linearGradient id="paint46_linear_1_746" x1="1796.37" y1="174.802" x2="1796.37" y2="128.335" gradientUnits="userSpaceOnUse">
<stop stop-color="#FFB71E"/>
<stop offset="1" stop-color="#FFFE05"/>
</linearGradient>
<linearGradient id="paint47_linear_1_746" x1="1812.17" y1="174.802" x2="1812.17" y2="128.335" gradientUnits="userSpaceOnUse">
<stop stop-color="#FFB71E"/>
<stop offset="1" stop-color="#FFFE05"/>
</linearGradient>
<linearGradient id="paint48_linear_1_746" x1="1804.15" y1="174.802" x2="1804.15" y2="128.225" gradientUnits="userSpaceOnUse">
<stop stop-color="#D40076"/>
<stop offset="1" stop-color="#FF5C7A"/>
</linearGradient>
<linearGradient id="paint49_linear_1_746" x1="1804.46" y1="174.802" x2="1804.46" y2="134.906" gradientUnits="userSpaceOnUse">
<stop offset="0.01" stop-color="#9F2B23"/>
<stop offset="1" stop-color="#FFAE8F"/>
</linearGradient>
<linearGradient id="paint50_linear_1_746" x1="1795.5" y1="152.926" x2="1795.5" y2="131.113" gradientUnits="userSpaceOnUse">
<stop/>
<stop offset="1" stop-color="#D9B512"/>
</linearGradient>
<linearGradient id="paint51_linear_1_746" x1="1800.9" y1="151.006" x2="1800.9" y2="129.802" gradientUnits="userSpaceOnUse">
<stop/>
<stop offset="1" stop-color="#D9B512"/>
</linearGradient>
<linearGradient id="paint52_linear_1_746" x1="1790.3" y1="150.858" x2="1790.3" y2="131.113" gradientUnits="userSpaceOnUse">
<stop/>
<stop offset="1" stop-color="#D9B512"/>
</linearGradient>
<linearGradient id="paint53_linear_1_746" x1="1787.6" y1="148.766" x2="1787.6" y2="131.113" gradientUnits="userSpaceOnUse">
<stop/>
<stop offset="1" stop-color="#D9B512"/>
</linearGradient>
<radialGradient id="paint54_radial_1_746" cx="0" cy="0" r="1" gradientUnits="userSpaceOnUse" gradientTransform="translate(1802.54 183.644) scale(5.3385 5.33817)">
<stop stop-color="#FF9700"/>
<stop offset="0.99" stop-color="#AE3818"/>
</radialGradient>
<linearGradient id="paint55_linear_1_746" x1="1800.16" y1="185.587" x2="1809.11" y2="185.587" gradientUnits="userSpaceOnUse">
<stop offset="0.01" stop-color="#9F2B23"/>
<stop offset="1" stop-color="#FFAE8F"/>
</linearGradient>
<linearGradient id="paint56_linear_1_746" x1="1782.15" y1="158.733" x2="1826.76" y2="158.733" gradientUnits="userSpaceOnUse">
<stop stop-color="#3442ED"/>
<stop offset="1"/>
</linearGradient>
</defs>
</svg>
