<svg width="101" height="95" viewBox="0 0 101 95" fill="none" xmlns="http://www.w3.org/2000/svg">
<g clip-path="url(#clip0_2_11)">
<path d="M3.08819 27.8709C0.223789 29.7876 -1.45457 33.884 1.71566 38.7246C4.8859 43.5652 50.142 76.427 51.7979 77.3365C53.4539 78.2459 55.1174 78.4038 59.3394 75.2093C63.5614 72.0148 98.8741 47.0754 99.7767 46.3237C101.224 45.1286 101.582 42.2197 99.7767 40.8518C99.7767 40.8518 57.012 70.955 55.6171 72.1652C54.2222 73.3753 52.0366 71.4135 52.4469 68.8204C52.8572 66.2272 53.1928 65.9341 58.586 61.9804C63.9791 58.0268 94.8162 36.0788 96.226 35.1092C97.8074 34.0118 97.8447 32.0651 95.2563 30.3513C91.6534 27.9611 52.7378 1.91671 51.4101 0.999709C50.0823 0.0827056 48.2846 -0.751617 45.5694 1.08239C42.8541 2.9164 8.36197 24.3382 3.08819 27.8709Z" fill="#005EEE"/>
<path d="M51.7979 80.5384C50.7238 79.9371 30.852 65.5958 16.4106 54.4339V77.7348C16.4106 94.7294 67.306 103.817 84.1716 82.9211V60.6425C73.8479 68.0086 61.7115 76.6224 59.3394 78.4113C55.1174 81.6057 53.4614 81.4479 51.7979 80.5384Z" fill="#005EEE"/>
<path d="M73.3406 55.0127C73.3406 55.0127 80.9119 58.6281 81.449 72.9919L77.779 72.0449L74.8474 77.9077C73.6092 62.1232 66.851 59.8683 66.851 59.8683L73.3406 55.0127Z" fill="#87B5FD"/>
</g>
<defs>
<clipPath id="clip0_2_11">
<rect width="101" height="95" fill="white"/>
</clipPath>
</defs>
</svg>
