<svg width="38" height="38" viewBox="0 0 38 38" fill="none" xmlns="http://www.w3.org/2000/svg">
<path d="M27.8984 9.05669L11.0992 25.8559C9.94339 24.2884 9.31006 22.3725 9.31006 20.2984V12.8409C9.31006 9.92752 10.6084 7.31502 12.6667 5.54169V12.0967C12.6667 12.7142 13.1734 13.2209 13.7751 13.2209C14.3926 13.2209 14.8992 12.7142 14.8992 12.0967V4.06919C15.6276 3.70502 16.4034 3.45169 17.2109 3.30919V9.10419C17.2109 9.73752 17.7176 10.2284 18.3351 10.2284C18.9526 10.2284 19.4592 9.73752 19.4592 9.10419V3.16669C23.2434 3.34085 26.5051 5.71585 27.8984 9.05669Z" fill="#242424"/>
<path d="M28.6899 14.06V20.2983C28.6899 25.6342 24.3358 29.9883 18.9999 29.9883C18.7149 29.9883 18.4299 29.9725 18.1449 29.9408C18.0183 29.9408 17.8916 29.925 17.7808 29.9092C17.5749 29.8775 17.3691 29.8458 17.1791 29.8142C17.0999 29.8142 17.0366 29.7825 16.9416 29.7667C16.7199 29.7192 16.4983 29.6558 16.2924 29.5925C15.9441 29.4975 15.6116 29.3708 15.2949 29.2442C15.0891 29.165 14.8991 29.0858 14.7091 28.975C14.6616 28.9592 14.6299 28.9275 14.5824 28.9117C14.4241 28.8325 14.2658 28.7533 14.1074 28.6425L28.6899 14.06Z" fill="#242424"/>
<path d="M34.4377 17.4167V20.5834C34.4377 29.1017 27.5185 36.0209 19.0002 36.0209C15.6435 36.0209 12.4293 34.9442 9.78516 32.965L11.4952 31.255C13.6802 32.8067 16.2768 33.6459 19.0002 33.6459C26.2043 33.6459 32.0627 27.7875 32.0627 20.5834V17.4167C32.0627 16.7675 32.601 16.2292 33.2502 16.2292C33.8993 16.2292 34.4377 16.7675 34.4377 17.4167Z" fill="#242424"/>
<path d="M34.4694 3.53081C33.9944 3.05581 33.2186 3.05581 32.7436 3.53081L3.53105 32.7591C3.05605 33.2341 3.05605 34.01 3.53105 34.485C3.76855 34.7066 4.06939 34.8333 4.38605 34.8333C4.70272 34.8333 5.00355 34.7066 5.24105 34.4691L34.4694 5.24081C34.9602 4.76581 34.9602 4.00581 34.4694 3.53081Z" fill="#242424"/>
</svg>
