<svg width="48" height="48" viewBox="0 0 48 48" fill="none" xmlns="http://www.w3.org/2000/svg">
<path d="M40.3799 28.12L38.1199 24.36C37.6199 23.54 37.1799 21.96 37.1799 21V17.26C37.1799 9.99998 31.2799 4.09998 24.0399 4.09998C16.7799 4.11998 10.8799 9.99998 10.8799 17.26V20.98C10.8799 21.94 10.4399 23.52 9.95992 24.34L7.69992 28.1C6.83992 29.56 6.63992 31.22 7.17992 32.66C7.71992 34.12 8.93992 35.28 10.5399 35.8C12.6999 36.52 14.8799 37.04 17.0999 37.42C17.3199 37.46 17.5399 37.48 17.7599 37.52C18.0399 37.56 18.3399 37.6 18.6399 37.64C19.1599 37.72 19.6799 37.78 20.2199 37.82C21.4799 37.94 22.7599 38 24.0399 38C25.2999 38 26.5599 37.94 27.7999 37.82C28.2599 37.78 28.7199 37.74 29.1599 37.68C29.5199 37.64 29.8799 37.6 30.2399 37.54C30.4599 37.52 30.6799 37.48 30.8999 37.44C33.1399 37.08 35.3599 36.52 37.5199 35.8C39.0599 35.28 40.2399 34.12 40.7999 32.64C41.3599 31.14 41.1999 29.5 40.3799 28.12ZM25.4999 20C25.4999 20.84 24.8199 21.52 23.9799 21.52C23.1399 21.52 22.4599 20.84 22.4599 20V13.8C22.4599 12.96 23.1399 12.28 23.9799 12.28C24.8199 12.28 25.4999 12.96 25.4999 13.8V20Z" fill="#242424"/>
<path d="M29.6601 40.02C28.8201 42.34 26.6001 44 24.0001 44C22.4201 44 20.8601 43.36 19.7601 42.22C19.1201 41.62 18.6401 40.82 18.3601 40C18.6201 40.04 18.8801 40.06 19.1601 40.1C19.6201 40.16 20.1001 40.22 20.5801 40.26C21.7201 40.36 22.8801 40.42 24.0401 40.42C25.1801 40.42 26.3201 40.36 27.4401 40.26C27.8601 40.22 28.2801 40.2 28.6801 40.14C29.0001 40.1 29.3201 40.06 29.6601 40.02Z" fill="#242424"/>
<circle cx="38" cy="9" r="8" fill="#005EEE" stroke="white" stroke-width="2"/>
</svg>
