<svg width="48" height="48" viewBox="0 0 48 48" fill="none" xmlns="http://www.w3.org/2000/svg">
<g id="vuesax/linear/shapes">
<g id="shapes">
<path id="Vector" d="M26.8602 30H8.80019C5.16019 30 2.84018 26.1 4.60018 22.9L9.26019 14.42L13.6202 6.48C15.4402 3.18 20.2002 3.18 22.0202 6.48L26.4002 14.42L28.5002 18.24L31.0602 22.9C32.8202 26.1 30.5002 30 26.8602 30Z" stroke="#005EEE" stroke-width="2" stroke-linecap="round" stroke-linejoin="round"/>
<path id="Vector_2" d="M44 31C44 38.18 38.18 44 31 44C23.82 44 18 38.18 18 31C18 30.66 18.02 30.34 18.04 30H26.86C30.5 30 32.82 26.1 31.06 22.9L28.5 18.24C29.3 18.08 30.14 18 31 18C38.18 18 44 23.82 44 31Z" stroke="#005EEE" stroke-width="2" stroke-linecap="round" stroke-linejoin="round"/>
</g>
</g>
</svg>
