<svg width="289" height="56" viewBox="0 0 289 56" fill="none" xmlns="http://www.w3.org/2000/svg">
<g clip-path="url(#clip0_377_738)">
<path d="M1.83447 16.4291C0.132843 17.559 -0.864203 19.9737 1.01911 22.8271C2.90241 25.6805 29.7872 45.0517 30.771 45.5878C31.7547 46.1239 32.7429 46.2169 35.251 44.3339C37.7591 42.4508 58.737 27.7497 59.2732 27.3066C60.1328 26.6021 60.3455 24.8874 59.2732 24.081C59.2732 24.081 33.8684 41.8261 33.0398 42.5394C32.2111 43.2528 30.9128 42.0964 31.1565 40.5678C31.4002 39.0392 31.5996 38.8664 34.8035 36.5358C38.0073 34.2052 56.3263 21.2675 57.1639 20.6959C58.1033 20.0491 58.1255 18.9015 56.5878 17.8913C54.4475 16.4823 31.3293 1.12983 30.5405 0.589283C29.7517 0.0487335 28.6838 -0.443078 27.0708 0.638021C25.4578 1.71912 4.96741 14.3467 1.83447 16.4291Z" fill="#005EEE"/>
<path d="M30.7709 47.4752C30.1328 47.1207 18.3278 38.6669 9.74878 32.0873V45.8225C9.74878 55.8404 39.9836 61.1972 50.0028 48.8797V35.7471C43.8699 40.0892 36.6602 45.1668 35.251 46.2213C32.7429 48.1044 31.7591 48.0113 30.7709 47.4752Z" fill="#005EEE"/>
<path d="M43.5686 32.4285C43.5686 32.4285 48.0664 34.5596 48.3855 43.0268L46.2053 42.4685L44.4637 45.9245C43.7281 36.6199 39.7134 35.2907 39.7134 35.2907L43.5686 32.4285Z" fill="#87B5FD"/>
</g>
<path d="M85.362 29.238C83.1407 29.238 81.1007 28.7167 79.242 27.674C77.3833 26.6313 75.91 25.192 74.822 23.356C73.734 21.4973 73.19 19.4007 73.19 17.066C73.19 14.754 73.734 12.68 74.822 10.844C75.91 8.98533 77.3833 7.53466 79.242 6.492C81.1007 5.44933 83.1407 4.928 85.362 4.928C87.606 4.928 89.646 5.44933 91.482 6.492C93.3407 7.53466 94.8027 8.98533 95.868 10.844C96.956 12.68 97.5 14.754 97.5 17.066C97.5 19.4007 96.956 21.4973 95.868 23.356C94.8027 25.192 93.3407 26.6313 91.482 27.674C89.6233 28.7167 87.5833 29.238 85.362 29.238ZM85.362 24.988C86.79 24.988 88.048 24.6707 89.136 24.036C90.224 23.3787 91.074 22.4493 91.686 21.248C92.298 20.0467 92.604 18.6527 92.604 17.066C92.604 15.4793 92.298 14.0967 91.686 12.918C91.074 11.7167 90.224 10.7987 89.136 10.164C88.048 9.52933 86.79 9.212 85.362 9.212C83.934 9.212 82.6647 9.52933 81.554 10.164C80.466 10.7987 79.616 11.7167 79.004 12.918C78.392 14.0967 78.086 15.4793 78.086 17.066C78.086 18.6527 78.392 20.0467 79.004 21.248C79.616 22.4493 80.466 23.3787 81.554 24.036C82.6647 24.6707 83.934 24.988 85.362 24.988ZM111.479 9.892C113.723 9.892 115.537 10.606 116.919 12.034C118.302 13.4393 118.993 15.4113 118.993 17.95V29H114.233V18.596C114.233 17.1 113.859 15.9553 113.111 15.162C112.363 14.346 111.343 13.938 110.051 13.938C108.737 13.938 107.694 14.346 106.923 15.162C106.175 15.9553 105.801 17.1 105.801 18.596V29H101.041V10.164H105.801V12.51C106.436 11.694 107.241 11.0593 108.215 10.606C109.213 10.13 110.301 9.892 111.479 9.892ZM128.28 3.84V29H123.52V3.84H128.28ZM135.397 7.92C134.558 7.92 133.855 7.65933 133.289 7.138C132.745 6.594 132.473 5.92533 132.473 5.132C132.473 4.33867 132.745 3.68133 133.289 3.16C133.855 2.616 134.558 2.344 135.397 2.344C136.235 2.344 136.927 2.616 137.471 3.16C138.037 3.68133 138.321 4.33867 138.321 5.132C138.321 5.92533 138.037 6.594 137.471 7.138C136.927 7.65933 136.235 7.92 135.397 7.92ZM137.743 10.164V29H132.983V10.164H137.743ZM152.884 9.892C155.128 9.892 156.941 10.606 158.324 12.034C159.706 13.4393 160.398 15.4113 160.398 17.95V29H155.638V18.596C155.638 17.1 155.264 15.9553 154.516 15.162C153.768 14.346 152.748 13.938 151.456 13.938C150.141 13.938 149.098 14.346 148.328 15.162C147.58 15.9553 147.206 17.1 147.206 18.596V29H142.446V10.164H147.206V12.51C147.84 11.694 148.645 11.0593 149.62 10.606C150.617 10.13 151.705 9.892 152.884 9.892ZM182.434 19.174C182.434 19.854 182.389 20.466 182.298 21.01H168.528C168.641 22.37 169.117 23.4353 169.956 24.206C170.795 24.9767 171.826 25.362 173.05 25.362C174.818 25.362 176.076 24.6027 176.824 23.084H181.958C181.414 24.8973 180.371 26.3933 178.83 27.572C177.289 28.728 175.396 29.306 173.152 29.306C171.339 29.306 169.707 28.9093 168.256 28.116C166.828 27.3 165.706 26.1553 164.89 24.682C164.097 23.2087 163.7 21.5087 163.7 19.582C163.7 17.6327 164.097 15.9213 164.89 14.448C165.683 12.9747 166.794 11.8413 168.222 11.048C169.65 10.2547 171.293 9.858 173.152 9.858C174.943 9.858 176.541 10.2433 177.946 11.014C179.374 11.7847 180.473 12.884 181.244 14.312C182.037 15.7173 182.434 17.338 182.434 19.174ZM177.504 17.814C177.481 16.59 177.039 15.6153 176.178 14.89C175.317 14.142 174.263 13.768 173.016 13.768C171.837 13.768 170.84 14.1307 170.024 14.856C169.231 15.5587 168.743 16.5447 168.562 17.814H177.504ZM192.854 17.1C192.854 14.7653 193.375 12.68 194.418 10.844C195.483 8.98533 196.923 7.546 198.736 6.526C200.572 5.48333 202.623 4.962 204.89 4.962C207.542 4.962 209.865 5.642 211.86 7.002C213.855 8.362 215.249 10.2433 216.042 12.646H210.568C210.024 11.5127 209.253 10.6627 208.256 10.096C207.281 9.52933 206.148 9.246 204.856 9.246C203.473 9.246 202.238 9.57467 201.15 10.232C200.085 10.8667 199.246 11.7733 198.634 12.952C198.045 14.1307 197.75 15.5133 197.75 17.1C197.75 18.664 198.045 20.0467 198.634 21.248C199.246 22.4267 200.085 23.3447 201.15 24.002C202.238 24.6367 203.473 24.954 204.856 24.954C206.148 24.954 207.281 24.6707 208.256 24.104C209.253 23.5147 210.024 22.6533 210.568 21.52H216.042C215.249 23.9453 213.855 25.838 211.86 27.198C209.888 28.5353 207.565 29.204 204.89 29.204C202.623 29.204 200.572 28.694 198.736 27.674C196.923 26.6313 195.483 25.192 194.418 23.356C193.375 21.52 192.854 19.4347 192.854 17.1ZM224.868 3.84V29H220.108V3.84H224.868ZM228.347 19.514C228.347 17.61 228.721 15.9213 229.469 14.448C230.239 12.9747 231.271 11.8413 232.563 11.048C233.877 10.2547 235.339 9.858 236.949 9.858C238.354 9.858 239.578 10.1413 240.621 10.708C241.686 11.2747 242.536 11.9887 243.171 12.85V10.164H247.965V29H243.171V26.246C242.559 27.13 241.709 27.8667 240.621 28.456C239.555 29.0227 238.32 29.306 236.915 29.306C235.328 29.306 233.877 28.898 232.563 28.082C231.271 27.266 230.239 26.1213 229.469 24.648C228.721 23.152 228.347 21.4407 228.347 19.514ZM243.171 19.582C243.171 18.426 242.944 17.44 242.491 16.624C242.037 15.7853 241.425 15.1507 240.655 14.72C239.884 14.2667 239.057 14.04 238.173 14.04C237.289 14.04 236.473 14.2553 235.725 14.686C234.977 15.1167 234.365 15.7513 233.889 16.59C233.435 17.406 233.209 18.3807 233.209 19.514C233.209 20.6473 233.435 21.6447 233.889 22.506C234.365 23.3447 234.977 23.9907 235.725 24.444C236.495 24.8973 237.311 25.124 238.173 25.124C239.057 25.124 239.884 24.9087 240.655 24.478C241.425 24.0247 242.037 23.39 242.491 22.574C242.944 21.7353 243.171 20.738 243.171 19.582ZM259.822 29.306C258.28 29.306 256.898 29.034 255.674 28.49C254.45 27.9233 253.475 27.164 252.75 26.212C252.047 25.26 251.662 24.206 251.594 23.05H256.388C256.478 23.7753 256.83 24.376 257.442 24.852C258.076 25.328 258.858 25.566 259.788 25.566C260.694 25.566 261.397 25.3847 261.896 25.022C262.417 24.6593 262.678 24.1947 262.678 23.628C262.678 23.016 262.36 22.5627 261.726 22.268C261.114 21.9507 260.128 21.6107 258.768 21.248C257.362 20.908 256.206 20.5567 255.3 20.194C254.416 19.8313 253.645 19.276 252.988 18.528C252.353 17.78 252.036 16.7713 252.036 15.502C252.036 14.4593 252.33 13.5073 252.92 12.646C253.532 11.7847 254.393 11.1047 255.504 10.606C256.637 10.1073 257.963 9.858 259.482 9.858C261.726 9.858 263.516 10.4247 264.854 11.558C266.191 12.6687 266.928 14.176 267.064 16.08H262.508C262.44 15.332 262.122 14.7427 261.556 14.312C261.012 13.8587 260.275 13.632 259.346 13.632C258.484 13.632 257.816 13.7907 257.34 14.108C256.886 14.4253 256.66 14.8673 256.66 15.434C256.66 16.0687 256.977 16.556 257.612 16.896C258.246 17.2133 259.232 17.542 260.57 17.882C261.93 18.222 263.052 18.5733 263.936 18.936C264.82 19.2987 265.579 19.8653 266.214 20.636C266.871 21.384 267.211 22.3813 267.234 23.628C267.234 24.716 266.928 25.6907 266.316 26.552C265.726 27.4133 264.865 28.0933 263.732 28.592C262.621 29.068 261.318 29.306 259.822 29.306ZM278.349 29.306C276.808 29.306 275.425 29.034 274.201 28.49C272.977 27.9233 272.002 27.164 271.277 26.212C270.574 25.26 270.189 24.206 270.121 23.05H274.915C275.006 23.7753 275.357 24.376 275.969 24.852C276.604 25.328 277.386 25.566 278.315 25.566C279.222 25.566 279.924 25.3847 280.423 25.022C280.944 24.6593 281.205 24.1947 281.205 23.628C281.205 23.016 280.888 22.5627 280.253 22.268C279.641 21.9507 278.655 21.6107 277.295 21.248C275.89 20.908 274.734 20.5567 273.827 20.194C272.943 19.8313 272.172 19.276 271.515 18.528C270.88 17.78 270.563 16.7713 270.563 15.502C270.563 14.4593 270.858 13.5073 271.447 12.646C272.059 11.7847 272.92 11.1047 274.031 10.606C275.164 10.1073 276.49 9.858 278.009 9.858C280.253 9.858 282.044 10.4247 283.381 11.558C284.718 12.6687 285.455 14.176 285.591 16.08H281.035C280.967 15.332 280.65 14.7427 280.083 14.312C279.539 13.8587 278.802 13.632 277.873 13.632C277.012 13.632 276.343 13.7907 275.867 14.108C275.414 14.4253 275.187 14.8673 275.187 15.434C275.187 16.0687 275.504 16.556 276.139 16.896C276.774 17.2133 277.76 17.542 279.097 17.882C280.457 18.222 281.579 18.5733 282.463 18.936C283.347 19.2987 284.106 19.8653 284.741 20.636C285.398 21.384 285.738 22.3813 285.761 23.628C285.761 24.716 285.455 25.6907 284.843 26.552C284.254 27.4133 283.392 28.0933 282.259 28.592C281.148 29.068 279.845 29.306 278.349 29.306Z" fill="#005EEE"/>
<path d="M79.59 40.545V41.655H76.74V51H75.375V41.655H72.51V40.545H79.59ZM85.3502 42.63C85.9702 42.63 86.5302 42.765 87.0302 43.035C87.5302 43.295 87.9202 43.69 88.2002 44.22C88.4902 44.75 88.6352 45.395 88.6352 46.155V51H87.2852V46.35C87.2852 45.53 87.0802 44.905 86.6702 44.475C86.2602 44.035 85.7002 43.815 84.9902 43.815C84.2702 43.815 83.6952 44.04 83.2652 44.49C82.8452 44.94 82.6352 45.595 82.6352 46.455V51H81.2702V39.9H82.6352V43.95C82.9052 43.53 83.2752 43.205 83.7452 42.975C84.2252 42.745 84.7602 42.63 85.3502 42.63ZM98.365 46.575C98.365 46.835 98.35 47.11 98.32 47.4H91.75C91.8 48.21 92.075 48.845 92.575 49.305C93.085 49.755 93.7 49.98 94.42 49.98C95.01 49.98 95.5 49.845 95.89 49.575C96.29 49.295 96.57 48.925 96.73 48.465H98.2C97.98 49.255 97.54 49.9 96.88 50.4C96.22 50.89 95.4 51.135 94.42 51.135C93.64 51.135 92.94 50.96 92.32 50.61C91.71 50.26 91.23 49.765 90.88 49.125C90.53 48.475 90.355 47.725 90.355 46.875C90.355 46.025 90.525 45.28 90.865 44.64C91.205 44 91.68 43.51 92.29 43.17C92.91 42.82 93.62 42.645 94.42 42.645C95.2 42.645 95.89 42.815 96.49 43.155C97.09 43.495 97.55 43.965 97.87 44.565C98.2 45.155 98.365 45.825 98.365 46.575ZM96.955 46.29C96.955 45.77 96.84 45.325 96.61 44.955C96.38 44.575 96.065 44.29 95.665 44.1C95.275 43.9 94.84 43.8 94.36 43.8C93.67 43.8 93.08 44.02 92.59 44.46C92.11 44.9 91.835 45.51 91.765 46.29H96.955ZM108.171 42.63C109.171 42.63 109.981 42.935 110.601 43.545C111.221 44.145 111.531 45.015 111.531 46.155V51H110.181V46.35C110.181 45.53 109.976 44.905 109.566 44.475C109.156 44.035 108.596 43.815 107.886 43.815C107.166 43.815 106.591 44.04 106.161 44.49C105.741 44.94 105.531 45.595 105.531 46.455V51H104.166V42.78H105.531V43.95C105.801 43.53 106.166 43.205 106.626 42.975C107.096 42.745 107.611 42.63 108.171 42.63ZM121.26 46.575C121.26 46.835 121.245 47.11 121.215 47.4H114.645C114.695 48.21 114.97 48.845 115.47 49.305C115.98 49.755 116.595 49.98 117.315 49.98C117.905 49.98 118.395 49.845 118.785 49.575C119.185 49.295 119.465 48.925 119.625 48.465H121.095C120.875 49.255 120.435 49.9 119.775 50.4C119.115 50.89 118.295 51.135 117.315 51.135C116.535 51.135 115.835 50.96 115.215 50.61C114.605 50.26 114.125 49.765 113.775 49.125C113.425 48.475 113.25 47.725 113.25 46.875C113.25 46.025 113.42 45.28 113.76 44.64C114.1 44 114.575 43.51 115.185 43.17C115.805 42.82 116.515 42.645 117.315 42.645C118.095 42.645 118.785 42.815 119.385 43.155C119.985 43.495 120.445 43.965 120.765 44.565C121.095 45.155 121.26 45.825 121.26 46.575ZM119.85 46.29C119.85 45.77 119.735 45.325 119.505 44.955C119.275 44.575 118.96 44.29 118.56 44.1C118.17 43.9 117.735 43.8 117.255 43.8C116.565 43.8 115.975 44.02 115.485 44.46C115.005 44.9 114.73 45.51 114.66 46.29H119.85ZM127.352 51L125.402 47.94L123.527 51H122.102L124.757 46.92L122.102 42.78H123.647L125.597 45.825L127.457 42.78H128.882L126.242 46.845L128.897 51H127.352ZM131.905 43.905V48.75C131.905 49.15 131.99 49.435 132.16 49.605C132.33 49.765 132.625 49.845 133.045 49.845H134.05V51H132.82C132.06 51 131.49 50.825 131.11 50.475C130.73 50.125 130.54 49.55 130.54 48.75V43.905H129.475V42.78H130.54V40.71H131.905V42.78H134.05V43.905H131.905ZM141.068 44.31C141.348 43.82 141.758 43.42 142.298 43.11C142.838 42.8 143.453 42.645 144.143 42.645C144.883 42.645 145.548 42.82 146.138 43.17C146.728 43.52 147.193 44.015 147.533 44.655C147.873 45.285 148.043 46.02 148.043 46.86C148.043 47.69 147.873 48.43 147.533 49.08C147.193 49.73 146.723 50.235 146.123 50.595C145.533 50.955 144.873 51.135 144.143 51.135C143.433 51.135 142.808 50.98 142.268 50.67C141.738 50.36 141.338 49.965 141.068 49.485V51H139.703V39.9H141.068V44.31ZM146.648 46.86C146.648 46.24 146.523 45.7 146.273 45.24C146.023 44.78 145.683 44.43 145.253 44.19C144.833 43.95 144.368 43.83 143.858 43.83C143.358 43.83 142.893 43.955 142.463 44.205C142.043 44.445 141.703 44.8 141.443 45.27C141.193 45.73 141.068 46.265 141.068 46.875C141.068 47.495 141.193 48.04 141.443 48.51C141.703 48.97 142.043 49.325 142.463 49.575C142.893 49.815 143.358 49.935 143.858 49.935C144.368 49.935 144.833 49.815 145.253 49.575C145.683 49.325 146.023 48.97 146.273 48.51C146.523 48.04 146.648 47.49 146.648 46.86ZM150.545 41.445C150.285 41.445 150.065 41.355 149.885 41.175C149.705 40.995 149.615 40.775 149.615 40.515C149.615 40.255 149.705 40.035 149.885 39.855C150.065 39.675 150.285 39.585 150.545 39.585C150.795 39.585 151.005 39.675 151.175 39.855C151.355 40.035 151.445 40.255 151.445 40.515C151.445 40.775 151.355 40.995 151.175 41.175C151.005 41.355 150.795 41.445 150.545 41.445ZM151.205 42.78V51H149.84V42.78H151.205ZM156.921 42.645C157.631 42.645 158.251 42.8 158.781 43.11C159.321 43.42 159.721 43.81 159.981 44.28V42.78H161.361V51.18C161.361 51.93 161.201 52.595 160.881 53.175C160.561 53.765 160.101 54.225 159.501 54.555C158.911 54.885 158.221 55.05 157.431 55.05C156.351 55.05 155.451 54.795 154.731 54.285C154.011 53.775 153.586 53.08 153.456 52.2H154.806C154.956 52.7 155.266 53.1 155.736 53.4C156.206 53.71 156.771 53.865 157.431 53.865C158.181 53.865 158.791 53.63 159.261 53.16C159.741 52.69 159.981 52.03 159.981 51.18V49.455C159.711 49.935 159.311 50.335 158.781 50.655C158.251 50.975 157.631 51.135 156.921 51.135C156.191 51.135 155.526 50.955 154.926 50.595C154.336 50.235 153.871 49.73 153.531 49.08C153.191 48.43 153.021 47.69 153.021 46.86C153.021 46.02 153.191 45.285 153.531 44.655C153.871 44.015 154.336 43.52 154.926 43.17C155.526 42.82 156.191 42.645 156.921 42.645ZM159.981 46.875C159.981 46.255 159.856 45.715 159.606 45.255C159.356 44.795 159.016 44.445 158.586 44.205C158.166 43.955 157.701 43.83 157.191 43.83C156.681 43.83 156.216 43.95 155.796 44.19C155.376 44.43 155.041 44.78 154.791 45.24C154.541 45.7 154.416 46.24 154.416 46.86C154.416 47.49 154.541 48.04 154.791 48.51C155.041 48.97 155.376 49.325 155.796 49.575C156.216 49.815 156.681 49.935 157.191 49.935C157.701 49.935 158.166 49.815 158.586 49.575C159.016 49.325 159.356 48.97 159.606 48.51C159.856 48.04 159.981 47.495 159.981 46.875ZM169.332 43.905V48.75C169.332 49.15 169.417 49.435 169.587 49.605C169.757 49.765 170.052 49.845 170.472 49.845H171.477V51H170.247C169.487 51 168.917 50.825 168.537 50.475C168.157 50.125 167.967 49.55 167.967 48.75V43.905H166.902V42.78H167.967V40.71H169.332V42.78H171.477V43.905H169.332ZM177.211 42.63C177.831 42.63 178.391 42.765 178.891 43.035C179.391 43.295 179.781 43.69 180.061 44.22C180.351 44.75 180.496 45.395 180.496 46.155V51H179.146V46.35C179.146 45.53 178.941 44.905 178.531 44.475C178.121 44.035 177.561 43.815 176.851 43.815C176.131 43.815 175.556 44.04 175.126 44.49C174.706 44.94 174.496 45.595 174.496 46.455V51H173.131V39.9H174.496V43.95C174.766 43.53 175.136 43.205 175.606 42.975C176.086 42.745 176.621 42.63 177.211 42.63ZM183.43 41.445C183.17 41.445 182.95 41.355 182.77 41.175C182.59 40.995 182.5 40.775 182.5 40.515C182.5 40.255 182.59 40.035 182.77 39.855C182.95 39.675 183.17 39.585 183.43 39.585C183.68 39.585 183.89 39.675 184.06 39.855C184.24 40.035 184.33 40.255 184.33 40.515C184.33 40.775 184.24 40.995 184.06 41.175C183.89 41.355 183.68 41.445 183.43 41.445ZM184.09 42.78V51H182.725V42.78H184.09ZM190.422 42.63C191.422 42.63 192.232 42.935 192.852 43.545C193.472 44.145 193.782 45.015 193.782 46.155V51H192.432V46.35C192.432 45.53 192.227 44.905 191.817 44.475C191.407 44.035 190.847 43.815 190.137 43.815C189.417 43.815 188.842 44.04 188.412 44.49C187.992 44.94 187.782 45.595 187.782 46.455V51H186.417V42.78H187.782V43.95C188.052 43.53 188.417 43.205 188.877 42.975C189.347 42.745 189.862 42.63 190.422 42.63ZM199.401 42.645C200.111 42.645 200.731 42.8 201.261 43.11C201.801 43.42 202.201 43.81 202.461 44.28V42.78H203.841V51.18C203.841 51.93 203.681 52.595 203.361 53.175C203.041 53.765 202.581 54.225 201.981 54.555C201.391 54.885 200.701 55.05 199.911 55.05C198.831 55.05 197.931 54.795 197.211 54.285C196.491 53.775 196.066 53.08 195.936 52.2H197.286C197.436 52.7 197.746 53.1 198.216 53.4C198.686 53.71 199.251 53.865 199.911 53.865C200.661 53.865 201.271 53.63 201.741 53.16C202.221 52.69 202.461 52.03 202.461 51.18V49.455C202.191 49.935 201.791 50.335 201.261 50.655C200.731 50.975 200.111 51.135 199.401 51.135C198.671 51.135 198.006 50.955 197.406 50.595C196.816 50.235 196.351 49.73 196.011 49.08C195.671 48.43 195.501 47.69 195.501 46.86C195.501 46.02 195.671 45.285 196.011 44.655C196.351 44.015 196.816 43.52 197.406 43.17C198.006 42.82 198.671 42.645 199.401 42.645ZM202.461 46.875C202.461 46.255 202.336 45.715 202.086 45.255C201.836 44.795 201.496 44.445 201.066 44.205C200.646 43.955 200.181 43.83 199.671 43.83C199.161 43.83 198.696 43.95 198.276 44.19C197.856 44.43 197.521 44.78 197.271 45.24C197.021 45.7 196.896 46.24 196.896 46.86C196.896 47.49 197.021 48.04 197.271 48.51C197.521 48.97 197.856 49.325 198.276 49.575C198.696 49.815 199.161 49.935 199.671 49.935C200.181 49.935 200.646 49.815 201.066 49.575C201.496 49.325 201.836 48.97 202.086 48.51C202.336 48.04 202.461 47.495 202.461 46.875ZM210.852 41.445C210.592 41.445 210.372 41.355 210.192 41.175C210.012 40.995 209.922 40.775 209.922 40.515C209.922 40.255 210.012 40.035 210.192 39.855C210.372 39.675 210.592 39.585 210.852 39.585C211.102 39.585 211.312 39.675 211.482 39.855C211.662 40.035 211.752 40.255 211.752 40.515C211.752 40.775 211.662 40.995 211.482 41.175C211.312 41.355 211.102 41.445 210.852 41.445ZM211.512 42.78V51H210.147V42.78H211.512ZM217.844 42.63C218.844 42.63 219.654 42.935 220.274 43.545C220.894 44.145 221.204 45.015 221.204 46.155V51H219.854V46.35C219.854 45.53 219.649 44.905 219.239 44.475C218.829 44.035 218.269 43.815 217.559 43.815C216.839 43.815 216.264 44.04 215.834 44.49C215.414 44.94 215.204 45.595 215.204 46.455V51H213.839V42.78H215.204V43.95C215.474 43.53 215.839 43.205 216.299 42.975C216.769 42.745 217.284 42.63 217.844 42.63ZM228.797 39.9V51H227.432V39.9H228.797ZM238.624 46.575C238.624 46.835 238.609 47.11 238.579 47.4H232.009C232.059 48.21 232.334 48.845 232.834 49.305C233.344 49.755 233.959 49.98 234.679 49.98C235.269 49.98 235.759 49.845 236.149 49.575C236.549 49.295 236.829 48.925 236.989 48.465H238.459C238.239 49.255 237.799 49.9 237.139 50.4C236.479 50.89 235.659 51.135 234.679 51.135C233.899 51.135 233.199 50.96 232.579 50.61C231.969 50.26 231.489 49.765 231.139 49.125C230.789 48.475 230.614 47.725 230.614 46.875C230.614 46.025 230.784 45.28 231.124 44.64C231.464 44 231.939 43.51 232.549 43.17C233.169 42.82 233.879 42.645 234.679 42.645C235.459 42.645 236.149 42.815 236.749 43.155C237.349 43.495 237.809 43.965 238.129 44.565C238.459 45.155 238.624 45.825 238.624 46.575ZM237.214 46.29C237.214 45.77 237.099 45.325 236.869 44.955C236.639 44.575 236.324 44.29 235.924 44.1C235.534 43.9 235.099 43.8 234.619 43.8C233.929 43.8 233.339 44.02 232.849 44.46C232.369 44.9 232.094 45.51 232.024 46.29H237.214ZM239.916 46.86C239.916 46.02 240.086 45.285 240.426 44.655C240.766 44.015 241.231 43.52 241.821 43.17C242.421 42.82 243.086 42.645 243.816 42.645C244.536 42.645 245.161 42.8 245.691 43.11C246.221 43.42 246.616 43.81 246.876 44.28V42.78H248.256V51H246.876V49.47C246.606 49.95 246.201 50.35 245.661 50.67C245.131 50.98 244.511 51.135 243.801 51.135C243.071 51.135 242.411 50.955 241.821 50.595C241.231 50.235 240.766 49.73 240.426 49.08C240.086 48.43 239.916 47.69 239.916 46.86ZM246.876 46.875C246.876 46.255 246.751 45.715 246.501 45.255C246.251 44.795 245.911 44.445 245.481 44.205C245.061 43.955 244.596 43.83 244.086 43.83C243.576 43.83 243.111 43.95 242.691 44.19C242.271 44.43 241.936 44.78 241.686 45.24C241.436 45.7 241.311 46.24 241.311 46.86C241.311 47.49 241.436 48.04 241.686 48.51C241.936 48.97 242.271 49.325 242.691 49.575C243.111 49.815 243.576 49.935 244.086 49.935C244.596 49.935 245.061 49.815 245.481 49.575C245.911 49.325 246.251 48.97 246.501 48.51C246.751 48.04 246.876 47.495 246.876 46.875ZM251.927 44.115C252.167 43.645 252.507 43.28 252.947 43.02C253.397 42.76 253.942 42.63 254.582 42.63V44.04H254.222C252.692 44.04 251.927 44.87 251.927 46.53V51H250.562V42.78H251.927V44.115ZM260.163 42.63C261.163 42.63 261.973 42.935 262.593 43.545C263.213 44.145 263.523 45.015 263.523 46.155V51H262.173V46.35C262.173 45.53 261.968 44.905 261.558 44.475C261.148 44.035 260.588 43.815 259.878 43.815C259.158 43.815 258.583 44.04 258.153 44.49C257.733 44.94 257.523 45.595 257.523 46.455V51H256.158V42.78H257.523V43.95C257.793 43.53 258.158 43.205 258.618 42.975C259.088 42.745 259.603 42.63 260.163 42.63ZM266.458 41.445C266.198 41.445 265.978 41.355 265.798 41.175C265.618 40.995 265.528 40.775 265.528 40.515C265.528 40.255 265.618 40.035 265.798 39.855C265.978 39.675 266.198 39.585 266.458 39.585C266.708 39.585 266.918 39.675 267.088 39.855C267.268 40.035 267.358 40.255 267.358 40.515C267.358 40.775 267.268 40.995 267.088 41.175C266.918 41.355 266.708 41.445 266.458 41.445ZM267.118 42.78V51H265.753V42.78H267.118ZM273.449 42.63C274.449 42.63 275.259 42.935 275.879 43.545C276.499 44.145 276.809 45.015 276.809 46.155V51H275.459V46.35C275.459 45.53 275.254 44.905 274.844 44.475C274.434 44.035 273.874 43.815 273.164 43.815C272.444 43.815 271.869 44.04 271.439 44.49C271.019 44.94 270.809 45.595 270.809 46.455V51H269.444V42.78H270.809V43.95C271.079 43.53 271.444 43.205 271.904 42.975C272.374 42.745 272.889 42.63 273.449 42.63ZM282.429 42.645C283.139 42.645 283.759 42.8 284.289 43.11C284.829 43.42 285.229 43.81 285.489 44.28V42.78H286.869V51.18C286.869 51.93 286.709 52.595 286.389 53.175C286.069 53.765 285.609 54.225 285.009 54.555C284.419 54.885 283.729 55.05 282.939 55.05C281.859 55.05 280.959 54.795 280.239 54.285C279.519 53.775 279.094 53.08 278.964 52.2H280.314C280.464 52.7 280.774 53.1 281.244 53.4C281.714 53.71 282.279 53.865 282.939 53.865C283.689 53.865 284.299 53.63 284.769 53.16C285.249 52.69 285.489 52.03 285.489 51.18V49.455C285.219 49.935 284.819 50.335 284.289 50.655C283.759 50.975 283.139 51.135 282.429 51.135C281.699 51.135 281.034 50.955 280.434 50.595C279.844 50.235 279.379 49.73 279.039 49.08C278.699 48.43 278.529 47.69 278.529 46.86C278.529 46.02 278.699 45.285 279.039 44.655C279.379 44.015 279.844 43.52 280.434 43.17C281.034 42.82 281.699 42.645 282.429 42.645ZM285.489 46.875C285.489 46.255 285.364 45.715 285.114 45.255C284.864 44.795 284.524 44.445 284.094 44.205C283.674 43.955 283.209 43.83 282.699 43.83C282.189 43.83 281.724 43.95 281.304 44.19C280.884 44.43 280.549 44.78 280.299 45.24C280.049 45.7 279.924 46.24 279.924 46.86C279.924 47.49 280.049 48.04 280.299 48.51C280.549 48.97 280.884 49.325 281.304 49.575C281.724 49.815 282.189 49.935 282.699 49.935C283.209 49.935 283.674 49.815 284.094 49.575C284.524 49.325 284.864 48.97 285.114 48.51C285.364 48.04 285.489 47.495 285.489 46.875Z" fill="#242424"/>
<defs>
<clipPath id="clip0_377_738">
<rect width="60" height="56" fill="white"/>
</clipPath>
</defs>
</svg>
