<svg width="38" height="38" viewBox="0 0 38 38" fill="none" xmlns="http://www.w3.org/2000/svg">
<path d="M33.4877 9.76915C32.8385 9.42081 31.4768 9.05665 29.6243 10.355L27.2968 12.0016C27.1227 7.07748 24.9852 5.14581 19.7918 5.14581H10.2918C4.87683 5.14581 2.771 7.25165 2.771 12.6666V25.3333C2.771 28.975 4.75016 32.8541 10.2918 32.8541H19.7918C24.9852 32.8541 27.1227 30.9225 27.2968 25.9983L29.6243 27.645C30.606 28.3416 31.461 28.5633 32.1418 28.5633C32.7277 28.5633 33.1868 28.3891 33.4877 28.2308C34.1368 27.8983 35.2293 26.9958 35.2293 24.7316V13.2683C35.2293 11.0041 34.1368 10.1016 33.4877 9.76915ZM17.4168 18.0183C15.786 18.0183 14.4402 16.6883 14.4402 15.0416C14.4402 13.395 15.786 12.065 17.4168 12.065C19.0477 12.065 20.3935 13.395 20.3935 15.0416C20.3935 16.6883 19.0477 18.0183 17.4168 18.0183Z" fill="#292D32"/>
</svg>
