<svg width="1440" height="841" viewBox="0 0 1440 841" fill="none" xmlns="http://www.w3.org/2000/svg">
<path d="M90 841L90 0.999976" stroke="#242424"/>
<path d="M174 841L174 0.999976" stroke="#242424"/>
<path d="M258 841L258 0.999976" stroke="#242424"/>
<path d="M342 841L342 0.999976" stroke="#242424"/>
<path d="M426 841L426 0.999976" stroke="#242424"/>
<path d="M510 841L510 0.999976" stroke="#242424"/>
<path d="M594 841V0.999976" stroke="#242424"/>
<path d="M678 841V0.999976" stroke="#242424"/>
<path d="M762 841V0.999976" stroke="#242424"/>
<path d="M846 841V0.999976" stroke="#242424"/>
<path d="M930 841V0.999976" stroke="#242424"/>
<path d="M1014 841V0.999976" stroke="#242424"/>
<path d="M1098 841V0.999976" stroke="#242424"/>
<path d="M1182 841V0.999976" stroke="#242424"/>
<path d="M1266 841V0.999976" stroke="#242424"/>
<path d="M1350 841V0.999976" stroke="#242424"/>
<path d="M1440 841V0.999976" stroke="#242424" stroke-width="2"/>
<path d="M0 1H1440" stroke="#242424"/>
<path d="M0 85H1440" stroke="#242424"/>
<path d="M0 169H1440" stroke="#242424"/>
<path d="M0 253H1440" stroke="#242424"/>
<path d="M0 337H1440" stroke="#242424"/>
<path d="M0 421H1440" stroke="#242424"/>
<path d="M0 505H1440" stroke="#242424"/>
<path d="M0 589H1440" stroke="#242424"/>
<path d="M0 673H1440" stroke="#242424"/>
<path d="M0 757H1440" stroke="#242424"/>
</svg>
